/* XPM */
static char *_ebafe8e82e64877e9a972358d054d20Sn7zzadBe6BLVzGB[] = {
/* columns rows colors chars-per-pixel */
"64 64 236 2 ",
"   c None",
".  c #000102",
"X  c #03050A",
"o  c #040A0D",
"O  c #070A0A",
"+  c #060C13",
"@  c #0A0E13",
"#  c #060D19",
"$  c #0B1115",
"%  c #0C141A",
"&  c #08151B",
"*  c #11151B",
"=  c #141A1D",
"-  c #101A17",
";  c #260E00",
":  c #320E01",
">  c #2C1202",
",  c #271707",
"<  c #331302",
"1  c #3A1504",
"2  c #3C1A03",
"3  c #351B06",
"4  c #241E16",
"5  c #3A2509",
"6  c #392A16",
"7  c #3E311A",
"8  c #302909",
"9  c #0A1523",
"0  c #0D1A22",
"q  c #0D1B2B",
"w  c #0B1526",
"e  c #131A22",
"r  c #1A1D25",
"t  c #121D2C",
"y  c #0D1D32",
"u  c #121E32",
"i  c #15232B",
"p  c #1B232B",
"a  c #152225",
"s  c #0E2437",
"d  c #132334",
"f  c #1A2533",
"g  c #1D2A34",
"h  c #13253B",
"j  c #152A3D",
"k  c #1A2B3C",
"l  c #172839",
"z  c #162B35",
"x  c #232D37",
"c  c #24323D",
"v  c #233637",
"b  c #372D30",
"n  c #421D03",
"m  c #492403",
"M  c #542D05",
"N  c #41311A",
"B  c #4F3213",
"V  c #693D14",
"C  c #483824",
"Z  c #513B28",
"A  c #3B4121",
"S  c #58421C",
"D  c #624719",
"F  c #764517",
"G  c #5B432A",
"H  c #5B4834",
"J  c #534F35",
"K  c #634A2F",
"L  c #755528",
"P  c #634B32",
"I  c #6C543C",
"U  c #695137",
"Y  c #755938",
"T  c #6E552D",
"R  c #716734",
"E  c #152C42",
"W  c #1B2C43",
"Q  c #172B46",
"!  c #1C3144",
"~  c #1C324B",
"^  c #163449",
"/  c #1B3452",
"(  c #1C3B55",
")  c #1D3A5C",
"_  c #193557",
"`  c #172F51",
"'  c #243443",
"]  c #2D3D4C",
"[  c #273748",
"{  c #223C5B",
"}  c #253A53",
"|  c #2C364C",
" . c #1D3E64",
".. c #213F62",
"X. c #1A435B",
"o. c #2C445D",
"O. c #284457",
"+. c #304151",
"@. c #35475B",
"#. c #2F464F",
"$. c #1D4565",
"%. c #1F4674",
"&. c #244264",
"*. c #294564",
"=. c #24456A",
"-. c #2D4A6B",
";. c #254A6A",
":. c #334D6C",
">. c #354B62",
",. c #365169",
"<. c #244B74",
"1. c #2C4C73",
"2. c #244A77",
"3. c #324D72",
"4. c #2B537B",
"5. c #2A5476",
"6. c #33547B",
"7. c #375676",
"8. c #24556A",
"9. c #366176",
"0. c #715941",
"q. c #785A42",
"w. c #685848",
"e. c #7B6148",
"r. c #73794E",
"t. c #455D77",
"y. c #42566F",
"u. c #4F6378",
"i. c #6E7070",
"p. c #5D694A",
"a. c #895219",
"s. c #8A5823",
"d. c #996326",
"f. c #8D6936",
"g. c #A37239",
"h. c #A26C30",
"j. c #B6701C",
"k. c #C47D26",
"l. c #886B47",
"z. c #8F7450",
"x. c #A87C48",
"c. c #B07F46",
"v. c #907965",
"b. c #7D865B",
"n. c #7C8459",
"m. c #76804E",
"M. c #7F8A61",
"N. c #D6913A",
"B. c #8F8659",
"V. c #A78452",
"C. c #838D63",
"Z. c #848E69",
"A. c #89926A",
"S. c #8D9672",
"D. c #949D78",
"F. c #818B75",
"G. c #AF8D6B",
"H. c #98A07D",
"J. c #ABB27A",
"K. c #A4AC6C",
"L. c #254E81",
"P. c #25548C",
"I. c #2A5889",
"U. c #355B87",
"Y. c #295A94",
"T. c #315E94",
"R. c #2C638D",
"E. c #39648B",
"W. c #326294",
"Q. c #35659B",
"!. c #3B6A9C",
"~. c #396796",
"^. c #336B94",
"/. c #346BA3",
"(. c #3B6CA3",
"). c #356AAA",
"_. c #3C74A6",
"`. c #3A75B2",
"'. c #415E82",
"]. c #476689",
"[. c #436B97",
"{. c #477399",
"}. c #4F7790",
"|. c #627C99",
" X c #426DA5",
".X c #4575A9",
"XX c #547BA7",
"oX c #467BB6",
"OX c #517DB5",
"+X c #467FC4",
"@X c #5A8594",
"#X c #4985BD",
"$X c #5785B8",
"%X c #4680AD",
"&X c #6287AC",
"*X c #6D98A8",
"=X c #6493B8",
"-X c #7194B2",
";X c #74959D",
":X c #4A85C7",
">X c #548AC7",
",X c #5D94C9",
"<X c #5290D5",
"1X c #6898C9",
"2X c #759CC7",
"3X c #669DDB",
"4X c #79A7D7",
"5X c #74A2CF",
"6X c #6BA6E3",
"7X c #7AADE3",
"8X c #979E84",
"9X c #9CA483",
"0X c #9CA68C",
"qX c #A4AC8C",
"wX c #A3AA88",
"eX c #ACB483",
"rX c #ADB58B",
"tX c #B4BB89",
"yX c #ADB593",
"uX c #ADB49B",
"iX c #AAB59A",
"pX c #B3BB99",
"aX c #A5AC92",
"sX c #B4BCA5",
"dX c #96B0AF",
"fX c #BCC398",
"gX c #BDC4A7",
"hX c #BEC7B2",
"jX c #C4CAAA",
"kX c #C7CCB3",
"lX c #CCD2B6",
"zX c #CED4B6",
"xX c #829EC2",
"cX c #8AAFD1",
"vX c #8FBAE3",
"bX c #D6DBC5",
/* pixels */
"                                                                      x.z.                                                      ",
"                                                                    c.c.c.x.                                                    ",
"                                                                  c.g.g.g.h.h.                                                  ",
"                                                              h.h.h.h.h.d.h.f.s.                                                ",
"                                                            a.a.s.s.d.F s.d.a.F V                                               ",
"                                                          j.a.F V V C | x G V V B B                                             ",
"                                                        N.N.L G b | '.2XXX| N n m m B                                           ",
"                                                        x.i.U.I.P.[.,XcXcX X .} b V V                                           ",
"                                                        $XOXY.Y.Y.Y.T.OX.XY.P. ...y.Z                                           ",
"                                                      T.=..X1XOXQ.Y.P.Y.P.P.P.2...y.@.                                          ",
"                                                    =.( $.$.oX4X2X+X XQ.(..XXXXX7.W u h                                         ",
"                                                    ) T.:X4.{ :X3XcX2X2X2X4X1X[.W h u 9                                         ",
"                                                  L.=.oX(.<.I.:X<X4XvXvXvX<X:X*.d *.{ q q                                       ",
"                                                2.%.$.(.Q.Q.oX(.1.T.6X6XoXW.oXW.~ ~ { y y                                       ",
"                                      f g i a h 5.W. ._ =.=.$._ / L.<X<XI.^ O.4.&.} ~ q q y                                     ",
"                          ] c p a e r r p f z Q 4.~.E.1.&.=.=.4.2.../.Q.X.<.) E u u w q E y                                     ",
"                        ] +.] [ [ g p p p = * $ 2.W.E.OX$X,X>X#X.X2.I.2.<./.T.4.} W l z j q # @ @ $                             ",
"                      +.+.+.] [ v g c | ] x @ . $.4.9 h } :.E.XX$XOX$X.X$X$XXX].:.>.| h E 9 @ * @ @ @ @ O X                     ",
"                      +.+.] ] x g x c | c e . . ) W.+ . . . + w ~ *.U.3.:.O.g t # @ + 9 E X . @ * $ $ $ * * * e e               ",
"                    +.+.] ] c p p x c c k h . . E .X].' # . . . . . X X X . . . . . . q h . . % r r = = r r r r e               ",
"                    +.+.#.' p p g x ' k ~ 2.9 . 9 R.,X1X&Xt.[ 9 O . . . . X @ $ = p x Q 9 . . + r e e * * r r r e =             ",
"                  ] ] ] c g p p r x x f  .Y.` . o 8.)..X>X,X1X@Xt.>.[ } o.>.t.y.y.7.} h O . X h f p r * * * r r e e             ",
"                #.] [ g a a p a p x i f 2.Y.L.s X ( /.Q.W.Q.(.!.}.&X=X&XXX}.[.1.*.} j & X X Q ..f r r e * * r r r e             ",
"                ] #.g & + & i i p g e E Y.`.`.%.9 y %./.`.).Y.8.X.^ ( ( =.=.2. .{ { j o X y  . .l r e * * @ * r r = e           ",
"                ] ] [ g & & a p g t * ( /.+X<X). .# # y $.T.Q.R.X.^ j ( <.I.I.&._ Q # X y  .L.2.f = = * * $ = - r r e           ",
"                [.@.] c 0 0 v c f & t <.`.3X6X<X). .# . X & j ( X.X.$.$.$.X.E 9 + X X E 2.Q.T.L.k @ - * * $ $ + * r =           ",
"              :X:XXXo.e 0 v c g 0 0 k I.oX7XvX3X:X/.%.q o . . . & q s & + X . . O w _ L. XOX XL.W + & % $ $ o X X * e 9         ",
"              :X>X5X&XO.i 0 = & 0 h ) /.<X7XvXvX6X:X/.P.` 9 o . . . . . . . X 9 Q L.T. X>X2X XL.E O o = - @ o + * e e e         ",
"            :X>X1X1X>X[.k u 0 e j ~ =.oX>X!.:.|.cX7X:X).Y.%.^ d o X O & q h ) L.T.oX+X1XxXxX.XP.W $ o = r = o $ p a * e         ",
"          >X:X1X1X:X+X Xu X O @ / P.T.`...` Q } '.xX4X1X_.R.8.X.j z s ^ X.<.Y.).+X3XxX|.|.|.OXT.Q % o o & = + X $ 0 0           ",
"        [.>X1X1X#X+X.X].W .   t %.T.).4.` } U.6.{ *.|.cX5X*X].8.X.X.X.X.9._.%X1XcXxX}.] ' ..].U.k e % o X o @ e v k z           ",
"    / E U.5X5X_.!./.U.]         Y.`.(._ { (.>X<X.X_ ~ y.-XcX*X@X@X^.E.@X*XcXcX-Xu.| W ' W u W ..` E w $ $ % k o.@.o./ j         ",
"  5.{.O.0 ,.$X_.X.v g             .X.X{ /  X:X(.!.) Q ! E.,X=X*X*X*X*X*X-X-Xu.v l { '.U.} u t / ) ` w . . O w d l f t           ",
"E.%X1X=X>.& i @.[ -                 E.E.o.( U.Q.<. .O.T.:X+X`.:X#X%X:X%X%X!.~ z k =.6.-.:.W t Q ..Q ` 6.x } U.U.7.:.o.          ",
"#X>X#X$X$X].i o o                       E.6.o.{ ;.4.T.~.R.<...`.<X<X/.;.U.!.E.! d k } -.} u d } -.U.oXXX>.>X:XXX].-.            ",
"  $X_.R.8.,.v O                           ^.~.5.=.-.1.1.5.U.3...`.^.X.{ } { { ( ~ ~ Q h u W ! 4.$X>X+X7.[.+XoX].,.{             ",
"  XX#XoX.Xu.#.#.8XjXfX                    j ;.6.6.3.3.U.E.!.[.4.T.6.5.!.6...} ~ ~ W ! ! k     >X,X!.8.v {.`.[.t.*.            7 ",
"    :.3.u.@XS.0XgXpXtX                . . u E ^ &.-.,.O.O.O.-.6.6.1.:.o.o.&.o.{ { ! h % . .   1X1XE.#.v 8.R.'.7.        Z N N N ",
"      p.b.M.C.D.uXrXJ.              . . . h { ;./ j X.O.O.#.O.>.:.>.O.#.#.[ ! z t & # o . . # [.XX].#.9.E.9.y.@.  0.0.P C 7 7 6 ",
"      S.M.C.C.S.qXqXeXK.          ' W X . h ) 1.1.( ^ s z ^ } +.@.] ^ z q t q 9 q q w + . . X + X o X [ u.i.w.w.I 0.I U Z 7 N 5 ",
"    pXD.Z.Z.C.C.wXqXeXJ.          ,.%XE.W + X u / Q E W Q d w k k i q q 0 u u u d t 9 + X u X . O 4 Z Z w.0.0.0.I I P G C 6 7 6 ",
"    gX0XC.C.n.b.H.qXyXeXK.          E.%X=XU.W o.-._ _ Q W W u u s q h k d q q w % X X d @.W 4 C H 0.w.0.I 0.P P K H U P H J 7 C ",
"    tXrXC.M.n.n.C.9XpXrXJ.          O.%X5X:X>X1X!.( ! u 9 t t u y u f t w q z ! 3.~ ] i.i.l.0.0.q.0.0.P K Z P U e.l.e.H C 3 4 Z ",
"    K.qXD.M.Z.b.b.9XiXyXfXfX        @.7.3.1.[.=XE.v -   . X w u u w + X $   v @.i.r.v.V.x.l.0.I P H G K I Y l.e.U Z 6 3 < 3 6 C ",
"      J.9XC.C.C.M.S.0XpXfXfX        ( <.^ s s ( >.x         . 9 w X         L Y L l.B.V.B.l.I G P 0.q.q.q.G N 3 < 1 n : n 2 N 7 ",
"      J.qXA.Z.A.M.M.0XrXfXfX        U.!.^ ) Q.( &                         L R f.Y L f.l.f.z.G.G.z.q.G N m > ; 1 < n m M M 5 6 6 ",
"        tXH.C.r.m.S.0XyXyXtXJ.      .XR.$.W.Q.( w                         D D L f.Y Y G.G.G.G.0.N < : ; 3 , ; > : 1 n n n 5 6   ",
"        eXqXA.R R C.9X9XiXyXJ.    ,.#X4.$.4.-.|                             L D V f.z.l.T B 3 < : 1 ; , A 8 < < < 1 n : : < 4   ",
"        tXpX9Xr.r.n.C.D.yXpXrXK.  O.%X{.9..X6.]                             Y T D f.S < < > m 2 : ; > 5 B 3 2 n 1 n 1 : > ,     ",
"          pXwXZ.C.A.b.A.wXyXtXJ.J } %X>X1X!.O.a                             0.Y K z.P < n m m 1 1 1 n < m n 1 < < > >           ",
"          fXaXA.A.C.C.b.H.qXqXeXr.d ! -.E.3.! =                             I I K 0.I 5 M M 2 1 1 1 n 1 m n > ;                 ",
"          tXyXS.M.C.b.b.D.qXqXtXeX@X~.7.' t @                               B S G I q.5 n : 1 n n < > <                         ",
"            tX9XM.M.n.b.A.9XyXfXgXdX:X$X].&.                                5 6 8 G I 8 1 : : : >                               ",
"            J.qXZ.M.M.M.C.D.iXgXjXhX2X                                          8 6 G , 3 >                                     ",
"            J.qXD.M.A.M.M.S.aXsXgXzX                                                                                            ",
"              eX9XS.A.M.S.9XaXiXpXkXbX                                                                                          ",
"              tXpXD.S.D.0XaXuXuXJ.fXjX                                                                                          ",
"              fXgXiXwXaXaXuXsXsXfXpX                                                                                            ",
"                kXsXiXuXuXuXsXgXfXfX                                                                                            ",
"                bXhXgXhXsXhXkXkXlX                                                                                              ",
"                bXzXjXkXbXsXhXkXzX                                                                                              ",
"                  zXjXzXlXjXjXpXjX                                                                                              ",
"                      jXzXzXfXfX                                                                                                ",
"                            fXtX                                                                                                "
};
