/* XPM */
static char *result[] = {
/* columns rows colors chars-per-pixel */
"64 64 75 1 ",
"  c black",
". c #0E0E0E",
"X c #181818",
"o c #343434",
"O c #3C3C3C",
"+ c #424242",
"@ c #4B4A4A",
"# c #504D4E",
"$ c #4F504F",
"% c #4F5050",
"& c #535353",
"* c #585757",
"= c #5A5758",
"- c #5C5B5B",
"; c #5F605F",
": c #615F60",
"> c #646364",
", c #6E6466",
"< c #6B6768",
"1 c #6C6C6C",
"2 c #716D6E",
"3 c #7D6A6E",
"4 c #78706E",
"5 c #737373",
"6 c #787676",
"7 c #7B7B7B",
"8 c #847578",
"9 c #827E7D",
"0 c #848484",
"q c #898686",
"w c #8D8D8D",
"e c #918E8E",
"r c #8F8F90",
"t c #908F90",
"y c #929292",
"u c #989797",
"i c #9C9C9C",
"p c #AD969A",
"a c #A09D9E",
"s c #A19FA0",
"d c #A4A3A4",
"f c #A8A5A5",
"g c #ABABAB",
"h c #B3AFAF",
"j c #B5B3B4",
"k c #B9B5B5",
"l c #BAB7B8",
"z c #BDBCBC",
"x c #C1BFC0",
"c c #C3C3C3",
"v c #CAC4C5",
"b c #CBCBCB",
"n c #D0CDCD",
"m c #CFD0CF",
"M c #D1CFD0",
"N c #D5D4D3",
"B c #D8D4D5",
"V c #DED7D8",
"C c #DCDCDC",
"Z c #E3DDDE",
"A c #EADDDD",
"S c #E2DFE0",
"D c #E4E2E3",
"F c #E9E5E6",
"G c #EAE7E8",
"H c #EBEBEB",
"J c #F2E3E2",
"K c #F5E8E7",
"L c #F5ECEC",
"P c #F8EDEC",
"I c #F4F4F4",
"U c #FAF4F4",
"Y c #F9F7F8",
"~ c #FFFFFF",
"T c #FFFFFFFF",
/* pixels */
"TTTTTTTTTTTTTTTTTTTTTTTTTTTTTTTTTTTTTTTTTTTTTTTTTTTTTTTTTTTTTTTT",
"TTTTTTTTTTTTTTTTTTTTTTTTTTTTTTTTTTTTTTTTTTTTTTTTTTTTTTTTTTTTTTTT",
"TTTTTTTTTTTTTTTTTTTTTTTTTTTTTTTTTTTTTTTTTTTTTTTTTTTTTTTTTTTTTTTT",
"TTTTTTTTTTTTTTTTTTTTTTTTTTTTTTTTTTTTTTTTTTTTTTTTTTTTTTTTTTTTTTTT",
"TTTTTTTTTTTTTTTTTTTTTTTTTTTTTTTTTTTTTTTTTTTTTTTTTTTTTTTTTTTTTTTT",
"TTTTTTTTTTTTTTTTTTTTTTTTTTTTTTTTTTTTTTTTTTTTTTTTTTTTTTTTTTTTTTTT",
"TTTTTTTTTTTTTTTTTTTTTTTTTTTTTTTTTTTTTTTTTTTTTTTTTTTTTTTTTTTTTTTT",
"TTTTTTTTTTTTTTTC752jTTTTTTTTTTTTTTTTTTTTTTTTIHYTTTTTTTTTTTTTTTTT",
"TTTTTTTTTTTTTTC65551lTTIcxcxcccxccccITTTTTTD5&iNTTTTTTTTTTTTTTTT",
"TTTTTTTTTTTTTT01yyy0+0yyrwwwwwwwwwwwyyNYYTD77w1>zTTTTTTTTTTTTTTT",
"TTTTTTTTTTTTTT75rr7;@dlc~~~~~~~~~~~~blr55zd-yrrw>bTTTTTTTTTTTTTT",
"TTTTTTTTTTTTTTf1w51dH~~~~~~~~~~~~~~~~~HCSs1-0rry*gTTTTTTTTTTTTTT",
"TTTTTTTTTTTTTTYd@wH~~~~~~~~~~~~Y~~~~~~~~~~Su;;ry*hTTTTTTTTTTTTTT",
"TTTTTTTTTTTTTTTz0H~~~~~~~~~~~~~~~~~~Y~~~~~~~Sd>1;cTTTTTTTTTTTTTT",
"TTTTTTTTTTTTTTcdI~~~~~~NmbcbNY~~~~~~~~~~~CbmNYdOhTTTTTTTTTTTTTTT",
"TTTTTTTTTTTTTYqm~Y~~~CgurussucI~Y~YY~~~Fjirrugb7FTTTTTTTTTTTTTTT",
"TTTTTTTTTTTTTluY~~~~CirrsbgzlucY~bjlzYHdyyyywwiuuTTTTTTTTTTTTTTT",
"TTTTTTTTTTTTHym~~~~Cirrrz0.oxiuH~g*++Dxyyw00wyy05NTTTTTTTTTTTTTT",
"TTTTTTTTTTTTC6~~~~Hiwyryx1 XjiuH~Iz5iYzq5$O+7yyt*hTTTTTTTTTTTTTT",
"TTTTTTTTTTTTld~~~Ycrywyyzm7iCigI~~~YY~c7@100wytu5wITTTTTTTTTTTTT",
"TTTTTTTTTTTI5D~~~IawyywwdDIIxuN~~Y~~~~zyyruzBBNBm5NTTTTTTTTTTTTT",
"TTTTTTTTTTTI5S~Y~IiwwyyyrisiuxY~~~~~~~bywgDLKKKKImwYTTTTTTTTTTTT",
"TTTTTTTTTTTI5S~~~YcuttwwryyhNY~~~~~~~~YmbFIJJJJFKC6YTTTTTTTTTTTT",
"TTTTTTTTTTTI1D~~~~IZhiiidbDH~~~~~~~CxN~~~YKJJJJKGl5YTTTTTTTTTTTT",
"TTTTTTTTTTTY5D~~~~PKAAAAH~~~~~~~~Hgq69M~~YLGJJLH0@-NTTTTTTTTTTTT",
"TTTTTTTTTTTY5D~~~IJJJJJJK~~~~~~Yz23pe7m~~~YLKUL02y<wTTTTTTTTTTTT",
"TTTTTTTTTTTI2D~~~LJJJJJJJU~~~~Ii=8,<fm~~~~~IYTb-qy>yTTTTTTTTTTTT",
"TTTTTTTTTTTTdd~~~KJJJJJJJUY~~~Hy9yNH~~~~~~~~~~71yy>wTTTTTTTTTTTT",
"TTTTTTTTTTTTC2H~~YPJJJJJIY~~~~~~~~~~~Y~~Y~~~~~51yy>yTTTTTTTTTTTT",
"TTTTTTTTTTTTHqcICgfvPKLI~~~~~~~~~~~~~~~~~~~~~~51yy>rTTTTTTTTTTTT",
"TTTTTTTTTTTTTh0x2**<V~~~~~~Y~~~~~Y~~Y~~~~~~~~I55yy>wTTTTTTTTTTTT",
"TTTTTTTTTTTTTIu@7yy&z~~~~~~~~Y~~~~~~~~~~~~~~~j-wr9;fTTTTTTTTTTTT",
"TTTTTTTTTTTTTTz;wtt&z~~~~~~~~~~~~~~~~~~~~~Y~~d=t91<ITTTTTTTTTTTT",
"TTTTTTTTTTTTTI75ewy$gIYY~~~~~~~~~~~~~~~~~~~YIi#07&zTTTTTTTTTTTTT",
"TTTTTTTTTTTTTk&007e#dDSFLYIIIIYIIILY~YLIIUISh4=7<1HTTTTTTTTTTTTT",
"TTTTTTTTTTTTTg@7770@255zBmNZZZZZZZSFFSSSZMj2#=715CTTTTTTTTTTTTTT",
"TTTTTTTTTTTTTg@7777@--*@@@,hkkkkjjjkjjjkq@#-0km1CTTTTTTTTTTTTTTT",
"TTTTTTTTTTTTTg@765%@7w0721:+OO+O+++O++++*1qlHYYybTTTTTTTTTTTTTTT",
"TTTTTTTTTTTTTD6@O@udcCCvuyqq000000000qqabbC~~~~bwYTTTTTTTTTTTTTT",
"TTTTTTTTTTTTTTHC0y~~~~~~HHHHHFHFFGHFHFHI~~~~~~~YyxTTTTTTTTTTTTTT",
"TTTTTTTTTTTTTTTTig~~~~Y~~~~~~~~~~~~~~~~~~~~~~~Y~uhTTTTTTTTTTTTTT",
"TTTTTTTTTTTTTTTTid~~~~~~~~~~Y~~~~~~~~Y~~~~~Y~~~~ugTTTTTTTTTTTTTT",
"TTTTTTTTTTTTTTTIuc~~~~~~~~~~~~~~Y~~~~~~~~Y~~~~~~yhTTTTTTTTTTTTTT",
"TTTTTTTTTTTTTTTb0~~~Y~~~~~~Y~~~~~~~~~~~~~~~~~~~Hu27zTTTTTTTTTTTT",
"TTTTTTTTTTTTTTTb7~~~~~~~~~~~~Y~~~~~~~~~Y~~~~Y~Hgr75-bTTTTTTTTTTT",
"TTTTTTTTTTTTTTTb9~~~~~~~Y~~~~~~~~~~~~~~~~~~~~Dgyyyy%zTTTTTTTTTTT",
"TTTTTTTTTTTTTTTc5~~Y~~~~~~~Y~~~~~~~~Y~~~~~~~Hzwrryy-kTTTTTTTTTTT",
"TTTTTTTTTTTTTTTb1D~~~~~Y~~~~~~~~~~Y~~~~~Y~~YCirryrr01bTTTTTTTTTT",
"TTTTTTTTTTTTTTTb*cI~~~~~~~~Y~~~Y~~~~~Y~~~~YDlr0qwryq1zTTTTTTTTTT",
"TTTTTTTTTTTTTTTYw7mDIIY~~~~~~~~~Y~~~~~~~~YFzr01>0w01lTTTTTTTTTTT",
"TTTTTTTTTTTTTTTTi;szNSHIIY~~~~~~~~~~~~~IIDNd7&16<5>zTTTTTTTTTTTT",
"TTTTTTTTTTTTTTTTS19rdlNNCFGFHYYTYYHFHFHZBbs5>fDYw%zTTTTTTTTTTTTT",
"TTTTTTTTTTTTTTTTT17ryyudcvbCSSDDDZZCnvczy0->bTTTIDTTTTTTTTTTTTTT",
"TTTTTTTTTTTTTTTTTj<wyrrrytijfsssddds0772@&0bTTTTTTTTTTTTTTTTTTTT",
"TTTTTTTTTTTTTTTTTTd>ywrrtw6>*%&%&&@&&&$1xbYTTTTTTTTTTTTTTTTTTTTT",
"TTTTTTTTTTTTTTTTTYu>ryrwq7;6MHHHHHHHHHHITTTTTTTTTTTTTTTTTTTTTTTT",
"TTTTTTTTTTTTTTTTTC&70905-*kTTTTTTTTTTTTTTTTTTTTTTTTTTTTTTTTTTTTT",
"TTTTTTTTTTTTTTTTT0>777>-uCTTTTTTTTTTTTTTTTTTTTTTTTTTTTTTTTTTTTTT",
"TTTTTTTTTTTTTTTTT1+@@@7DTTTTTTTTTTTTTTTTTTTTTTTTTTTTTTTTTTTTTTTT",
"TTTTTTTTTTTTTTTTTCzzzxHTTTTTTTTTTTTTTTTTTTTTTTTTTTTTTTTTTTTTTTTT",
"TTTTTTTTTTTTTTTTTTTTTTTTTTTTTTTTTTTTTTTTTTTTTTTTTTTTTTTTTTTTTTTT",
"TTTTTTTTTTTTTTTTTTTTTTTTTTTTTTTTTTTTTTTTTTTTTTTTTTTTTTTTTTTTTTTT",
"TTTTTTTTTTTTTTTTTTTTTTTTTTTTTTTTTTTTTTTTTTTTTTTTTTTTTTTTTTTTTTTT",
"TTTTTTTTTTTTTTTTTTTTTTTTTTTTTTTTTTTTTTTTTTTTTTTTTTTTTTTTTTTTTTTT"
};
