/* XPM */
static char *result[] = {
/* columns rows colors chars-per-pixel */
"64 64 72 1 ",
"  c #020202",
". c gray10",
"X c gray14",
"o c gray19",
"O c #444444",
"+ c #484647",
"@ c #4D4C4C",
"# c #504D4E",
"$ c #504F50",
"% c #545454",
"& c #595758",
"* c #5C5C5C",
"= c #615F60",
"- c #6C5F61",
"; c #646363",
": c #6B6465",
"> c #696867",
", c #6A6768",
"< c #6C6B6B",
"1 c #706465",
"2 c #706668",
"3 c #726C6E",
"4 c #70706F",
"5 c #716F70",
"6 c #747474",
"7 c #797778",
"8 c #7B7B7B",
"9 c #807E7F",
"0 c #827F80",
"q c #848384",
"w c #898787",
"e c #888788",
"r c #8D8D8D",
"t c #918F90",
"y c #929191",
"u c #989696",
"i c #9C9B9B",
"p c #A19A9C",
"a c #A3A3A3",
"s c #A8A3A5",
"d c #ACACAC",
"f c #B1AFAE",
"g c #B0AFB0",
"h c #B4B3B3",
"j c #B8B6B7",
"k c #BAB7B8",
"l c #BCBCBC",
"z c #C1BCBD",
"x c #C1BFC0",
"c c #C4C4C4",
"v c #CAC4C5",
"b c #CCCCCC",
"n c #D2CCCD",
"m c #D5CFD0",
"M c #D3D3D3",
"N c #D8D6D6",
"B c #DBD7D8",
"V c #DCDADB",
"C c #E2DDDE",
"Z c #E5E2E3",
"A c #EAE5E6",
"S c #EAE7E9",
"D c #ECECEC",
"F c #F2E3E2",
"G c #F3ECED",
"H c #F7F0EE",
"J c #F1EFF0",
"K c #F4F3F3",
"L c #F9F4F5",
"P c #F9F7F8",
"~ c #FFFFFF",
"I c #FFFFFFFF",
/* pixels */
"IIIIIIIIIIIIIIIIIIIIIIIIIIIIIIIIIIIIIIIIIIIIIIIIIIIIIIIIIIIIIIII",
"IIIIIIIIIIIIIIIIIIIIIIIIIIIIIIIIIIIIIIIIIIIIIIIIIIIIIIIIIIIIIIII",
"IIIIIIIIIIIIIIIIIIIIIIIIIIIIIIIIIIIIIIIIIIIIIIIIIIIIIIIIIIIIIIII",
"IIIIIIIIIIIIIIIIIIIIIIIIIIIIIIIIIIIIIIIIIIIIIIIIIIIIIIIIIIIIIIII",
"IIIIIIIIIIIIIIIIIIIKKKIIIIIIIIIIIIIIIIIIIIIIIIIIIIIIIIIIIIIIIIII",
"IIIIIIIIIIIIIIIIIIl;=*dIIIIIIIIIIIIIIIIIIIIIIIIIIIIIIIIIIIIIIIII",
"IIIIIIIIIIIIIIIIIl49qq4dIIIIIIIIIIIIIIIIIIIIIIIIIIIIIIIIIIIIIIII",
"IIIIIIIIIIIIIIIII46yyye*SDbq88888eVSSSSIIIIIIIIJSDIIIIIIIIIIIIII",
"IIIIIIIIIIIIIIIII<7yyq*Ou4tbbMbbMvq6667hcJIIIIN<$;bIIIIIIIIIIIII",
"IIIIIIIIIIIIIIIIIg<e=;qqlKK~~~~~~~KKJJSaryybIV68e0<bIIIIIIIIIIII",
"IIIIIIIIIIIIIIIIIPu%iM~~~~~~~~~~~~~~~~~~~bhibi;yyyq;NIIIIIIIIIII",
"IIIIIIIIIIIIIIIIIcaZ~~~~~~~~~~~~~~~~~~~~~~~Dy<*eytt%lIIIIIIIIIII",
"IIIIIIIIIIIIIIIIciJ~~~~PVlllllZPP~~~~~~~~~~~~N$@eyr&cIIIIIIIIIII",
"IIIIIIIIIIIIIIIPil~~~~DhirytrrihD~~~~~~~~~~~~~Sh><>aPIIIIIIIIIII",
"IIIIIIIIIIIIIIIbqP~~~SdryyydxxaygD~~~~~~~~JMbbMPy&aPIIIIIIIIIIII",
"IIIIIIIIIIIIIIPyb~~~Ddryyyac67citV~DbbNP~DgtrryddeDIIIIIIIIIIIII",
"IIIIIIIIIIIIIIMrK~~Pjtttyrhe  ydrV~h<;@bKgihjayry;lIIIIIIIIIIIII",
"IIIIIIIIIIIIIIec~~~PhryrtrgdXohdyV~Ki&*Sbuxi9cayy8<KIIIIIIIIIIII",
"IIIIIIIIIIIIIKeM~~~~ZdaasuuclxlyhK~P~SZ~bih. <jryy>aIIIIIIIIIIII",
"IIIIIIIIIIIIIhi~~~P~~LDDGbkdiiyiN~~~~~~~bia$@7drry;yIIIIIIIIIIII",
"IIIIIIIIIIIIIdi~~~~~PGFFFGHFbiiM~~~~~~~~Myyaiutyry>rIIIIIIIIIIII",
"IIIIIIIIIIIIIdi~~~~PGFFFFFFL~KDP~~~~~~~~Pdrrriggggp=bIIIIIIIIIII",
"IIIIIIIIIIIIIdi~~~~PLHFFFFFH~~~~~~~~~~~~PVlyiNHFDHD6lIIIIIIIIIII",
"IIIIIIIIIIIIIdt~~PVMV~PGFFAL~~P~~~KbMMMK~~PZALFFAALwlIIIIIIIIIII",
"IIIIIIIIIIIIIdeP~k*@*l~PFAH~~~~~~Zy2112pS~~~PFFFFALelIIIIIIIIIII",
"IIIIIIIIIIIIIZeNk>wy7<P~LPP~P~~~~Dy,-:1pK~~~PGFFGL~rlIIIIIIIIIII",
"IIIIIIIIIIIIIIqe&wyy7>P~~~~~~~~P~~DbnbML~~~~~LGH~Pb;xIIIIIIIIIII",
"IIIIIIIIIIIIIIk<,ttr=a~~~~~~~~~~~~~~~~~~~~~~~~P~~d&@uPIIIIIIIIII",
"IIIIIIIIIIIIIIZ;wtt0*D~~P~~~P~~~~~~~~~~~~~~P~~~~P;7y6iIIIIIIIIII",
"IIIIIIIIIIIIIIe5ttt&f~~~~~~~~~~~~~~~~~~~~~~~~~~PP;8y6<IIIIIIIIII",
"IIIIIIIIIIIIIIq6yr7<C~P~~~~~~~~~P~P~~~P~P~~~P~~~P>7y66IIIIIIIIII",
"IIIIIIIIIIIIIIV;ee=3BAGPP~~~~~P~~~~~~~~~~~~~~~~~P>7y66IIIIIIIIII",
"IIIIIIIIIIIIIIPr>77*8mCZALGL~~~~~~~~~~~~~~~~~~~~b;qy66IIIIIIIIII",
"IIIIIIIIIIIIIIIPy;88*&uvnCCAAALPPP~PPP~PPPPPPLVk<8tw=cIIIIIIIIII",
"IIIIIIIIIIIIIIIIKy7y7:%o:ipzCVCZZZCCCACZZZZZVs:@8eq<6KIIIIIIIIII",
"IIIIIIIIIIIIIIIIIdgCie76=++&<<>qbmMmmmmnmv7,:@;898>8ZIIIIIIIIIII",
"IIIIIIIIIIIIIIIII8V~Sbaiq89<*&&%@#####@@@@&&;887;=8AIIIIIIIIIIII",
"IIIIIIIIIIIIIIIIP9N~~~PSllklgeq83<<<<<<<<69qrrq=7eZIIIIIIIIIIIII",
"IIIIIIIIIIIIIIIIluK~~~~P~~~~KVMbjyyyyyyyuuujNNc6SIIIIIIIIIIIIIII",
"IIIIIIIIIIIIIIIIid~~~~~~~~~~~~~~PDDDGDDGDDDP~~~jiIIIIIIIIIIIIIII",
"IIIIIIIIIIIIIIIIig~~~~~P~~~~~~~~~~~~~~~~~~~~~~~ceIIIIIIIIIIIIIII",
"IIIIIIIIIIIIIIIBrS~~~~~~~~P~~~~~~~~~~~~~~~~~~~~ceIIIIIIIIIIIIIII",
"IIIIIIIIIIIIIIIb9~~~P~~~~~~~~~~~~~~~~P~~~~~~~~~ceIIIIIIIIIIIIIII",
"IIIIIIIIIIIIIIIb9~~~~~~~~~P~~P~~~P~~~~~~~~P~~~~ceIIIIIIIIIIIIIII",
"IIIIIIIIIIIIIIIb9~~~~~~~P~~~~~P~~~~~~~P~~~~~~~~haIIIIIIIIIIIIIII",
"IIIIIIIIIIIIIIIb8P~~~~~~~~~~~~~~~~~P~~~~~~~~~~S7DIIIIIIIIIIIIIII",
"IIIIIIIIIIIIIIIb7V~~~~P~~~~~~~~~P~~~P~~~P~~~~Kh=KIIIIIIIIIIIIIII",
"IIIIIIIIIIIIIIIIirZKKK~~~~~P~~~~~~~~~~~~~~~PDj7qPIIIIIIIIIIIIIII",
"IIIIIIIIIIIIIIIIi>gcVZDJ~~~~~~~~~~~~~~~~~~DZjt%bIIIIIIIIIIIIIIII",
"IIIIIIIIIIIIIIIIi;yyicbVZSKKPPP~~~~PKPPPJNlayy$MIIIIIIIIIIIIIIII",
"IIIIIIIIIIIIIIID96yrqqqdhkNZZVZDJKDVVVVxhueryy@bIIIIIIIIIIIIIIII",
"IIIIIIIIIIIIIIIc%yyrrrq86<qrerubNMNkapiq8qryye*MIIIIIIIIIIIIIIII",
"IIIIIIIIIIIIIIP48yyytr06=;;;;;*=;;;*%=8errtyu;uIIIIIIIIIIIIIIIII",
"IIIIIIIIIIIIIIj;eyyre7<=xPPP~Pxrrtrty7;ettyyy=aIIIIIIIIIIIIIIIII",
"IIIIIIIIIIIIIK76yye9<**xIIIIIIIIIIIIID4>erry8<ZIIIIIIIIIIIIIIIII",
"IIIIIIIIIIIIIh&rrq<$>aDIIIIIIIIIIIIIIId*7eyr>aIIIIIIIIIIIIIIIIII",
"IIIIIIIIIIIIIZ7<6&;dSIIIIIIIIIIIIIIIIIK%<ete%SIIIIIIIIIIIIIIIIII",
"IIIIIIIIIIIIIIZ7*dSIIIIIIIIIIIIIIIIIIID&6ry86KIIIIIIIIIIIIIIIIII",
"IIIIIIIIIIIIIIIPPIIIIIIIIIIIIIIIIIIIIIK%O%&6VIIIIIIIIIIIIIIIIIII",
"IIIIIIIIIIIIIIIIIIIIIIIIIIIIIIIIIIIIIIIblxlZIIIIIIIIIIIIIIIIIIII",
"IIIIIIIIIIIIIIIIIIIIIIIIIIIIIIIIIIIIIIIIIIIIIIIIIIIIIIIIIIIIIIII",
"IIIIIIIIIIIIIIIIIIIIIIIIIIIIIIIIIIIIIIIIIIIIIIIIIIIIIIIIIIIIIIII",
"IIIIIIIIIIIIIIIIIIIIIIIIIIIIIIIIIIIIIIIIIIIIIIIIIIIIIIIIIIIIIIII",
"IIIIIIIIIIIIIIIIIIIIIIIIIIIIIIIIIIIIIIIIIIIIIIIIIIIIIIIIIIIIIIII"
};
