/* XPM */
static char *result[] = {
/* columns rows colors chars-per-pixel */
"64 64 73 1 ",
"  c black",
". c #151515",
"X c #191919",
"o c #272727",
"O c gray18",
"+ c #3D3D3D",
"@ c #454444",
"# c #484647",
"$ c #4C4B4C",
"% c #50524F",
"& c #545454",
"* c #585757",
"= c #595758",
"- c #5D5C5C",
"; c #60615F",
": c #635F60",
"> c #646464",
", c #6D6665",
"< c #6D6C6C",
"1 c #776768",
"2 c #706F6F",
"3 c #7D6969",
"4 c #747474",
"5 c #7A7677",
"6 c #7B7779",
"7 c #7B7B7B",
"8 c #817F80",
"9 c #848484",
"0 c #888788",
"q c #8D8D8D",
"w c #928F90",
"e c #919191",
"r c #9C9B9B",
"t c #A09C9D",
"y c #A0A09F",
"u c #A09FA0",
"i c #A3A3A3",
"p c #A8A7A7",
"a c #A7A8A7",
"s c #ACACAC",
"d c #B1ADAE",
"f c #B3B3B3",
"g c #B9B5B6",
"h c #B8B7B8",
"j c #BCBCBC",
"k c #C0C0BF",
"l c #C3BFC0",
"z c #C4C3C3",
"x c #CAC6C7",
"c c #CBC7C8",
"v c #CACACA",
"b c #D4CFD1",
"n c #D4D3D4",
"m c #D8D5D6",
"M c #DCD6D8",
"N c #DCDBDB",
"B c #E1DCDE",
"V c #E3DEE0",
"C c #E4E3E3",
"Z c #E9E6E7",
"A c #ECE7E9",
"S c #ECEBEC",
"D c #F2E3E2",
"F c #F5E8E7",
"G c #F4EAEA",
"H c #F9EFEF",
"J c #F8F0EE",
"K c #F2EFF0",
"L c #F4F3F3",
"P c #FAF5F5",
"I c #F9F7F8",
"~ c #FFFFFF",
"U c #FFFFFFFF",
/* pixels */
"UUUUUUUUUUUUUUUUUUUUUUUUUUUUUUUUUUUUUUUUUUUUUUUUUUUUUUUUUUUUUUUU",
"UUUUUUUUUUUUUUUUUUUUUUUUUUUUUUUUUUUUUUUUUUUUUUUUUUUUUUUUUUUUUUUU",
"UUUUUUUUUUUUUUUUUUUUUUUUUUUUUUUUUUUUUUUUUUUUUUUUUUUUUUUUUUUUUUUU",
"UUUUUUUUUUUUUUUUUUUUUUUUUUUUUUUUUUUUUUUUUUUUUUUUUUUUUUUUUUUUUUUU",
"UUUUUUUUUUUUUUUUUUUUUUUUUUUUUUUUUUUUUUUUUUUUUUUUUUUUUUUUUUUUUUUU",
"UUUUUUUUUUUUUUUUUUUUUUUUUUUUUUUUUUUUUUUUUUUUUUUIUUUUUUUUUUUUUUUU",
"UUUUUUUUUUUUUUUUNaasZUUUUUUUUUUUUUUUUUUUUUUULdaivUUUUUUUUUUUUUUU",
"UUUUUUUUUUUUUUUN4UUU9Z~~SSSCr77777777aZSLUULr-;;<vUUUUUUUUUUUUUU",
"UUUUUUUUUUUUUUL27eee40Bf4224hnnvvnnvns4<rkmi<eee9>ZUUUUUUUUUUUUU",
"UUUUUUUUUUUUUUL=9ee0&@eySLLL~~~~~~~~~ILLzqe&>qeqq%NUUUUUUUUUUUUU",
"UUUUUUUUUUUUUUL<7e2*rhC~~~~~~I~~~~~~~~~~~~Sh<-0eq%NUUUUUUUUUUUUU",
"UUUUUUUUUUUUUUUN4-qBI~~~~~~~~~~~~~~~~~~~~~~~Sh<;;4SUUUUUUUUUUUUU",
"UUUUUUUUUUUUUUUUr4S~ICkkjzS~~~~~~I~~~~~ZkjjkZIh$eCUUUUUUUUUUUUUU",
"UUUUUUUUUUUUUUUxiL~LhyqqqqrvI~~~~~~~~LkyqqqqyjSvpLUUUUUUUUUUUUUU",
"UUUUUUUUUUUUUUS7S~SfeqerjkfrvI~~LCZIIjehjhreqehLrfUUUUUUUUUUUUUU",
"UUUUUUUUUUUUUUssISfeqeevq-fdrL~C908jLrjs-rzeeeekNqZUUUUUUUUUUUUU",
"UUUUUUUUUUUUUU9v~jeeqqrhX *kyL~LrO<CSrz@ okewwqyN4NUUUUUUUUUUUUU",
"UUUUUUUUUUUUUmeZCyqqeerv%XqkiL~~LfC~Lrz4.>veqwewjdaUUUUUUUUUUUUU",
"UUUUUUUUUUUUUdr~nqqeeqqfzfvyyL~~~~~~SrivhvaeeqqwkB4IUUUUUUUUUUUU",
"UUUUUUUUUUUULrz~CyeeeeeerreejI~~~~~~LdeereeeeyjhmSenUUUUUUUUUUUU",
"UUUUUUUUUUUUN7I~~ZmnnnmmjrrjL~~~~~~~~KfrrrsnmCI~I~heUUUUUUUUUUUU",
"UUUUUUUUUUUUN4I~~PGFGGGPISSL~~~~~~~~~~LSLSLJFFFFI~feUUUUUUUUUUUU",
"UUUUUUUUUUUUN<S~PGDDDDDDP~~~~~PLLLL~~~~~~~HZDDDDL~feUUUUUUUUUUUU",
"UUUUUUUUUUUUN2mnZPDDDDDDH~~~INq,,,8bI~~~~IFDDDJPI~feUUUUUUUUUUUU",
"UUUUUUUUUUUUN%>$4VIGDDDDP~~~~j33133s~~~I~~IGZJI~~~feUUUUUUUUUUUU",
"UUUUUUUUUUUUC+7q54ZPFFDPI~~~~PkyyrfL~~~~I~~IP~~m49eeUUUUUUUUUUUU",
"UUUUUUUUUUUUk-qew$m~III~~~I~~~~~~~~~~~~~~~~I~~S,<<+qUUUUUUUUUUUU",
"UUUUUUUUUUUL<7ee45S~~~~I~~~~~~~~~~~~I~~~~~~~~~S&0e>qUUUUUUUUUUUU",
"UUUUUUUUUUUs>qeq*f~~~~~~~~~~~~~~~~~~~~~~~~~~~~S&9e<qUUUUUUUUUUUU",
"UUUUUUUUUUU0<ee<<CP~~~~~I~I~~~I~I~~~~~~~I~~~~~S&9e>qUUUUUUUUUUUU",
"UUUUUUUUUUU0>ee>>NCLI~~~~~~~~~~~~~I~~~I~~~~~~~a>q9<vUUUUUUUUUUUU",
"UUUUUUUUUUU0>wq7-wNVZLI~~~~~I~~~~~~~~~~~~~~~LI42e7>UUUUUUUUUUUUU",
"UUUUUUUUUUUh>4474=6dNBVSKI~~~~~~~~~~~~~IKKKAVl:7w<rUUUUUUUUUUUUU",
"UUUUUUUUUUUUj&-707==,jnVVCZCZZZZZZZZCCAAVVMl4*2q0-CUUUUUUUUUUUUU",
"UUUUUUUUUUUUUC4qfr04>#7rtcVBNNNNNNBBBBhrrt9#-274>kUUUUUUUUUUUUUU",
"UUUUUUUUUUUUUU9v~mvdq9-@#:2<<<<<<<<22<*###*775=-zUUUUUUUUUUUUUUU",
"UUUUUUUUUUUUUkrL~~~KCChre7-=&-&*&****=<weeaNk#rNUUUUUUUUUUUUUUUU",
"UUUUUUUUUUUULrk~~~~~~~ILPKkfdsfffdfdddhZLLI~m4LUUUUUUUUUUUUUUUUU",
"UUUUUUUUUUUUN7I~~~~~~~~~~~~~~~~~~~~I~~~~~~~~N8LUUUUUUUUUUUUUUUUU",
"UUUUUUUUUUUUN7~~I~~~I~~~~~~~~~~I~~~~~~~~~~~~IifUUUUUUUUUUUUUUUUU",
"UUUUUUUUUUUUN7I~~~~I~~~~~~~~I~~~~~~I~I~~~I~~~siUUUUUUUUUUUUUUUUU",
"UUUUUUUUUUUUN7I~~~~~~~I~~I~~~~~~~~~~~~~~~~~~~aiUUUUUUUUUUUUUUUUU",
"UUUUUUUUUUUUN4L~~I~~I~~~~~~I~~I~~~~~~~~~~~~~~aiUUUUUUUUUUUUUUUUU",
"UUUUUUUUUUUUn<S~~~~~~~~~~~~~~~~~~I~~~I~~~~I~~ayUUUUUUUUUUUUUUUUU",
"UUUUUUUUSzvz2>NI~~~~~~~~~~~~~~~~~~~~~~~~~~~~LyhUUUUUUUUUUUUUUUUU",
"UUUUUUUS9%&&60hCLI~~~~~II~~~~I~~~~~I~~~II~~~n7IUUUUUUUUUUUUUUUUU",
"UUUI0eN94eeee0wxCL~~I~~~~~~I~~~~I~~~I~~~~~~~a2UUUUUUUUUUUUUUUUUU",
"UUUI=$&4ewwee07qxCLI~~~~~~~~~~~~~~~~~~~~~~~S0<UUUUUUUUUUUUUUUUUU",
"UUUUs;7qeqq09987qxNZI~~~~~~~~~~~~~~~~~~~~ISs>hUUUUUUUUUUUUUUUUUU",
"UUUUUs-7009777777qlnVSIII~~~~~~I~~IIILHCmhu0%SUUUUUUUUUUUUUUUUUU",
"UUUUUUs>4-#$$$$<477rgzNBVSSKLHKLKHCBVbhseeq40LUUUUUUUUUUUUUUUUUU",
"UUUUUUUs&wddsfa;##><,7ttrlmmmmmmnnzrrw70qee&zUUUUUUUUUUUUUUUUUUU",
"UUUUUUUICLUUUUUCNn5>>-&&&;,>>>>>>7977qqwee9>mUUUUUUUUUUUUUUUUUUU",
"UUUUUUUUUUUUUUUUUUIUUNeqwqqqqwwqq;%5qqeqee>qUUUUUUUUUUUUUUUUUUUU",
"UUUUUUUUUUUUUUUUUUUUUUUUUUUUUUUUUNa;<9qeee<0UUUUUUUUUUUUUUUUUUUU",
"UUUUUUUUUUUUUUUUUUUUUUUUUUUUUUUUUUUf<>9eee>qUUUUUUUUUUUUUUUUUUUU",
"UUUUUUUUUUUUUUUUUUUUUUUUUUUUUUUUUUUULe,899-qUUUUUUUUUUUUUUUUUUUU",
"UUUUUUUUUUUUUUUUUUUUUUUUUUUUUUUUUUUUUL4>77@0UUUUUUUUUUUUUUUUUUUU",
"UUUUUUUUUUUUUUUUUUUUUUUUUUUUUUUUUUUUUU7+$&7xUUUUUUUUUUUUUUUUUUUU",
"UUUUUUUUUUUUUUUUUUUUUUUUUUUUUUUUUUUUUUNkjvIUUUUUUUUUUUUUUUUUUUUU",
"UUUUUUUUUUUUUUUUUUUUUUUUUUUUUUUUUUUUUUUUUUUUUUUUUUUUUUUUUUUUUUUU",
"UUUUUUUUUUUUUUUUUUUUUUUUUUUUUUUUUUUUUUUUUUUUUUUUUUUUUUUUUUUUUUUU",
"UUUUUUUUUUUUUUUUUUUUUUUUUUUUUUUUUUUUUUUUUUUUUUUUUUUUUUUUUUUUUUUU",
"UUUUUUUUUUUUUUUUUUUUUUUUUUUUUUUUUUUUUUUUUUUUUUUUUUUUUUUUUUUUUUUU"
};
