/* XPM */
static char *result[] = {
/* columns rows colors chars-per-pixel */
"64 64 76 1 ",
"  c #010101",
". c gray10",
"X c #272727",
"o c #2C2A2B",
"O c #323232",
"+ c #443E3E",
"@ c #454444",
"# c #494647",
"$ c #4D4D4D",
"% c #50514F",
"& c #545454",
"* c #595758",
"= c #5C5C5C",
"- c #625E5F",
"; c #636363",
": c #696767",
"> c #676868",
", c #6C6C6C",
"< c #706E6E",
"1 c #6E706E",
"2 c #726F70",
"3 c #747373",
"4 c #7A7777",
"5 c #7C7C7C",
"6 c #807C7D",
"7 c #848484",
"8 c #888485",
"9 c #8B8987",
"0 c #878888",
"q c #8C8C8C",
"w c #918F8F",
"e c #918F90",
"r c #8F9090",
"t c #919191",
"y c #999797",
"u c #9B9B9B",
"i c #A19D9E",
"p c #A4A3A4",
"a c #A8A6A7",
"s c #ABAAAA",
"d c #B2AEAE",
"f c #B4B3B3",
"g c #B9B7B7",
"h c #BDB7BA",
"j c #BCBBBB",
"k c #C0BFBF",
"l c #CABCBB",
"z c #C3BFC1",
"x c #C4C3C4",
"c c #C8C4C5",
"v c #C8C7C8",
"b c #CCCBCB",
"n c #D1CCCD",
"m c #D4D3D3",
"M c #D9D4D5",
"N c #DCD6D8",
"B c #DCDCDC",
"V c #E1DDDD",
"C c #EBDDDC",
"Z c #E3DEE0",
"A c #E4E3E3",
"S c #EAE5E5",
"D c #ECEBEB",
"F c #F2E3E2",
"G c #F4E8E7",
"H c #F4EDED",
"J c #F8EFED",
"K c #F9F0EE",
"L c #EFEFF0",
"P c #F3EFF0",
"I c #F4F3F3",
"U c #F9F4F4",
"Y c #FBF8F7",
"T c #F9F7F8",
"~ c #FFFFFF",
"R c #FFFFFFFF",
/* pixels */
"RRRRRRRRRRRRRRRRRRRRRRRRRRRRRRRRRRRRRRRRRRRRRRRRRRRRRRRRRRRRRRRR",
"RRRRRRRRRRRRRRRRRRRRRRRRRRRRRRRRRRRRRRRRRRRRRRRRRRRRRRRRRRRRRRRR",
"RRRRRRRRRRRRRRRRRRRRRRRRRRRRRRRRRRRRRRRRRRRRRRRRRRRRRRRRRRRRRRRR",
"RRRRRRRRRRRRRRRRRRRRRRRRRRRRRRRRRRRRRRRRRRRRRRRRRRRRRRRRRRRRRRRR",
"RRRRRRRRRRRRRRRRRRRRRRRRRRRRRRRRRRRRRRRAt00xRRRRRRRRRRRRRRRRRRRR",
"RRRRRRRRRRRRRRRRRRRRRRRRRRRRRRRRRRRRRRA5,,,,xRRRRRRRRRRRRRRRRRRR",
"RRRRRRRRRRRRRRRRRRRRRRRRRRRTxassaaaMRR0,ttr7=DRRRRRRRRRRRRRRRRRR",
"RRRRRRRRRRRIB75BRRRRRDAy5557uaaaaapy5s,;0tt0%DRRRRRRRRRRRRRRRRRR",
"RRRRRRRRRRIt=324B~Lxg53kmnmnI~~~~~~Dmd&&;1r53LRRRRRRRRRRRRRRRRRR",
"RRRRRRRRRIt2qrr17LpquDIT~~~~~~~~~~~~~TITx5*3BRRRRRRRRRRRRRRRRRRR",
"RRRRRRRRRA&0rrr4;5x~~~~~~~~~~~~~~~~~~~~T~IxubRRRRRRRRRRRRRRRRRRR",
"RRRRRRRRRI54tr1OyA~~~~~~~~~T~~~T~T~~~~~~~~~LpxRRRRRRRRRRRRRRRRRR",
"RRRRRRRRRRv*02%,jvL~~~~~~~~~~~~~~~~~~~~~~~~~m5TRRRRRRRRRRRRRRRRR",
"RRRRRRRRRRIu&@7rrrpvT~~~~~~~~~~~~~~~~~~~~~~~TpgRRRRRRRRRRRRRRRRR",
"RRRRRRRRRRRTu>rrrrryxT~IAAI~~~~IbbnbmT~~~~~~~brLRRRRRRRRRRRRRRRR",
"RRRRRRRRRRRD>7tq5qrrtbI577uT~~TjrtrrtdN~~~~T~~rxRRRRRRRRRRRRRRRR",
"RRRRRRRRRRRu>rt5#*1rrgI=O;v~~~Aur3=5tqyBT~~~~~B5IRRRRRRRRRRRRRRR",
"RRRRRRRRRRBtjbstq>%$5g~BjD~~T~kr3. 2arruB~~~~~L4DRRRRRRRRRRRRRRR",
"RRRRRRRRRRk8KKGMsy010f~~~~~~~~jry&%bVytqfT~~~~~fpRRRRRRRRRRRRRRR",
"RRRRRRRRRRk8FFGPLbytrjT~~~~~~~jrsAI~DuqrrxI~~~~v7RRRRRRRRRRRRRRR",
"RRRRRRRRRP9lFFCFGIbupB~~~~~~~~xrrfDIxtttruD~~~~v0RRRRRRRRRRRRRRR",
"RRRRRRRRRA:CFFFFFGTDI~~~~~T~~~Lirruptrrrrrf~~~~k7RRRRRRRRRRRRRRR",
"RRRRRRRRRA<CFFFFFG~~~~~~~~~~~~~vyrrrrrrrrrd~~~~g0RRRRRRRRRRRRRRR",
"RRRRRRRRRA1JUKGFFFT~~T~T~T~~~~~TvtqrrrrrryB~~~Tf7RRRRRRRRRRRRRRR",
"RRRRRRRRRA3xuxTPJH~~~If9hT~~~~~~TvyrrrrrwfU~~~SyfRRRRRRRRRRRRRRR",
"RRRRRRRRRA#==>j~~~~~~Ts+-4nI~~~~~~vyyrrydSJJYTm:IRRRRRRRRRRRRRRR",
"RRRRRRRRRDX#y0>gT~~Y~~Tg%-#uD~~~~~IDVdsMCFFSTPb:DRRRRRRRRRRRRRRR",
"RRRRRRRRRT3$rr7=L~~~~~~TCi2$3S~~~~~~~HFSFFFFUAb,IRRRRRRRRRRRRRRR",
"RRRRRRRRRRk&rr7&L~~~~T~~~~AfjI~~~~~~~JFFFFFJDBqfRRRRRRRRRRRRRRRR",
"RRRRRRRRRRk&rr7*L~~~~~~Y~~~~~~T~T~~~THFFFFFSZB1mRRRRRRRRRRRRRRRR",
"RRRRRRRRRRj&yr0&L~~~~~~~~~~~~~~~~~~~~~YUHn5:5pyDRRRRRRRRRRRRRRRR",
"RRRRRRRRRRn;0r7&P~~~~~~~~~T~~~~~~~~~TTISn2:2:3BRRRRRRRRRRRRRRRRR",
"RRRRRRRRRRR0,t0=h~Y~~~~~~~~Y~~~~PLHPAZZZ8=ttt;aRRRRRRRRRRRRRRRRR",
"RRRRRRRRRRRy;et1:ZDGSASSSSSSSSSSVZNxzzcc2=tet=pRRRRRRRRRRRRRRRRR",
"RRRRRRRRRRRD;6rq>6iinVBVBVVVVVfuui8#@@@@o=trt-pRRRRRRRRRRRRRRRRR",
"RRRRRRRRRRRRs,0rq;$#;,,,<:,<,,*###&44667$=trt-pRRRRRRRRRRRRRRRRR",
"RRRRRRRRRRRRRy3ppapq;=========,567000ypp3=qrt-pRRRRRRRRRRRRRRRRR",
"RRRRRRRRRRRRRsyTTITMghjjjjjjjjjjjjjjjmITLy>qr=pRRRRRRRRRRRRRRRRR",
"RRRRRRRRRRRRRsy~~~~~~~~~~~~~~T~~~~~~~~~~~Iu&$>BRRRRRRRRRRRRRRRRR",
"RRRRRRRRRRRRRsu~T~~~~~~Y~~~~~~~~~~T~~~~~~~INs3RRRRRRRRRRRRRRRRRR",
"RRRRRRRRRRRRRay~~~~~~~~~T~~~~~~~~~~~~~~~T~~~DtmRRRRRRRRRRRRRRRRR",
"RRRRRRRRRRRRRsy~~~~T~~~T~~~~~~T~~~T~~~~~~~~~~apRRRRRRRRRRRRRRRRR",
"RRRRRRRRRRRRRau~~~~~~~~~~~~TT~~~~~~~T~~~~~~~~apRRRRRRRRRRRRRRRRR",
"RRRRRRRRRRRRRAtA~~~~~~~~~~~~~~~~~~~~~~~~~T~~~apRRRRRRRRRRRRRRRRR",
"RRRRRRRRRRRRRR7v~~~~T~~~~~~~~~~~~~~~~~~~~~~~~apRRRRRRRRRRRRRRRRR",
"RRRRRRRRRRRRRRgpT~~~~~~~~T~~~~~~~T~~~~T~~~~~~ppRRRRRRRRRRRRRRRRR",
"RRRRRRRRRRRRRRI7B~~~~~~T~~~~~TT~~~~TT~~~~~~TDqpRRRRRRRRRRRRRRRRR",
"RRRRRRRRRRRRRRRx3NLT~~~~~~~~~~~~~~~~~~~~TTIDx>uRRRRRRRRRRRRRRRRR",
"RRRRRRRRRRRRRRTt,pnZP~~~~~~~~~~~~~~~~~~YDZbay=pRRRRRRRRRRRRRRRRR",
"RRRRRRRRRRRRRRB;07qdnASUTIT~~~~~~~YYYIAmbp0751DRRRRRRRRRRRRRRRRR",
"RRRRRRRRRRRRRR7,qq750dfMVVAIHLPPHDAVkfdq770r33RRRRRRRRRRRRRRRRRR",
"RRRRRRRRRRRRRR5,trtq855yiusmMMMceqq93,708qrr42RRRRRRRRRRRRRRRRRR",
"RRRRRRRRRRRRRR5,ttetq7,&&&=;;;;;;;;-;-10etee1yRRRRRRRRRRRRRRRRRR",
"RRRRRRRRRRRRRR52ttrq7,5qeetqwqqaUTTT~d$50ee0&SRRRRRRRRRRRRRRRRRR",
"RRRRRRRRRRRRRR41ttr0,>DRRRRRRRRRRRRRRD3;7tr0%SRRRRRRRRRRRRRRRRRR",
"RRRRRRRRRRRRRRs>qrr7;,RRRRRRRRRRRRRRRR5=7rt37IRRRRRRRRRRRRRRRRRR",
"RRRRRRRRRRRRRRI;5tt7;,RRRRRRRRRRRRRRRR5=7tt&xRRRRRRRRRRRRRRRRRRR",
"RRRRRRRRRRRRRRRb,;==&qRRRRRRRRRRRRRRRRy&;,,@xRRRRRRRRRRRRRRRRRRR",
"RRRRRRRRRRRRRRRRb077yLRRRRRRRRRRRRRRRRIp700qBRRRRRRRRRRRRRRRRRRR",
"RRRRRRRRRRRRRRRRRRRRRRRRRRRRRRRRRRRRRRRRRRRRRRRRRRRRRRRRRRRRRRRR",
"RRRRRRRRRRRRRRRRRRRRRRRRRRRRRRRRRRRRRRRRRRRRRRRRRRRRRRRRRRRRRRRR",
"RRRRRRRRRRRRRRRRRRRRRRRRRRRRRRRRRRRRRRRRRRRRRRRRRRRRRRRRRRRRRRRR",
"RRRRRRRRRRRRRRRRRRRRRRRRRRRRRRRRRRRRRRRRRRRRRRRRRRRRRRRRRRRRRRRR",
"RRRRRRRRRRRRRRRRRRRRRRRRRRRRRRRRRRRRRRRRRRRRRRRRRRRRRRRRRRRRRRRR"
};
