/* XPM */
static char *result[] = {
/* columns rows colors chars-per-pixel */
"64 64 68 1 ",
"  c black",
". c #141414",
"X c #1D1D1D",
"o c #343434",
"O c #393939",
"+ c #464545",
"@ c #484647",
"# c #4D4C4C",
"$ c #504E4D",
"% c #504F50",
"& c #545353",
"* c #585657",
"= c #5D5C5C",
"- c #605E5E",
"; c #646363",
": c #6B6565",
"> c #686867",
", c #6C6B6B",
"< c #7C6867",
"1 c #706D6E",
"2 c #737373",
"3 c #7C7373",
"4 c #7C7B7B",
"5 c #817E7F",
"6 c #838383",
"7 c #888586",
"8 c #888788",
"9 c #8D8D8D",
"0 c #918D8E",
"q c #929292",
"w c #989897",
"e c #9C9B9B",
"r c #A19D9D",
"t c #A29FA0",
"y c #A4A4A4",
"u c #ACACAC",
"i c #B0AFAF",
"p c #B1AFB0",
"a c #B4B3B4",
"s c #B9B6B7",
"d c #BAB7B8",
"f c #BDBCBC",
"g c #C0BBBC",
"h c #C3C3C3",
"j c #CAC4C5",
"k c #CBCBCB",
"l c #D3CECF",
"z c #D3CFD1",
"x c #D4D3D4",
"c c #D8D6D6",
"v c #D8D8D7",
"b c #DBDBDB",
"n c #E2DCDD",
"m c #E5DFE1",
"M c #E5E4E4",
"N c #EAE6E6",
"B c #EBE7E8",
"V c #EBEBEB",
"C c #F2E3E2",
"Z c #F5E8E7",
"A c #F4ECEC",
"S c #F2EFF0",
"D c #F3F3F3",
"F c #F9F4F4",
"G c #FCF8F7",
"H c #FAF7F8",
"~ c #FFFFFF",
"J c #FFFFFFFF",
/* pixels */
"JJJJJJJJJJJJJJJJJJJJJJJJJJJJJJJJJJJJJJJJJJJJJJJJJJJJJJJJJJJJJJJJ",
"JJJJJJJJJJJJJJJJJJJJJJJJJJJJJJJJJJJJJJJJJJJJJJJJJJJJJJJJJJJJJJJJ",
"JJJJJJJJJJJJJJJJJJJJJJJJJJJJJJJJJJJJJJJJJJJJJJJJJJJJJJJJJJJJJJJJ",
"JJJJJJJJJJJJJJJJJJJJJJJJJJJJJJJJJJJJJJJJJJJJJJJJJJJJJJJJJJJJJJJJ",
"JJJJJJJJJJJJJJJJJJJJJJJJJJJJJJJJJJJJJJJJJJJJJJJJJJJJJJJJJJJJJJJJ",
"JJJJJJJJJJJJJJJJJJJJJJJJJJJJJJJJJJJJJJJJJJJJJJJJJJJJJJJJJJJJJJJJ",
"JJJJJJJJJJJJhyyfHJJJJJJJJJJJJJJJJJJJJJJJbuyuBJJJJJJJJJJJJJJJJJJJ",
"JJJJJJJJJJJa;-=;uGJJDMMq44444444aBBBVJJv2---8MJJJJJJJJJJJJJJJJJJ",
"JJJJJJJJJJk-9qq9-fxh8,2fzxzzzzzxu1116fb14qqq28JJJJJJJJJJJJJJJJJJ",
"JJJJJJJJJJf&qqq9&>qqvDD~H~H~H~~~HDDDMw9O>9qq2,HJJJJJJJJJJJJJJJJJ",
"JJJJJJJJJJh&qq6*4h~H~~~~~~~~~~~~~~~~~~xs9&4q18JJJJJJJJJJJJJJJJJJ",
"JJJJJJJJJJv,-=1kD~HHH~~~~~~~~H~HH~~~~HH~Dv4=6MJJJJJJJJJJJJJJJJJJ",
"JJJJJJJJJJHx6%zHbfhfhDHHH~~~~~~~~HVfffhVH~M>fHJJJJJJJJJJJJJJJJJJ",
"JJJJJJJJJJJMyvVae999qyk~~~~~~~~~Hfe99qqehH~MevJJJJJJJJJJJJJJJJJJ",
"JJJJJJJJJJHwsVuq9qyffaekHDMmD~~Dswsfswq9qf~Hx6HJJJJJJJJJJJJJJJJJ",
"JJJJJJJJJJvqMi9qqeh6;fiyHy689D~Mwfy=yfqq9qfHDehHJJJJJJJJJJJJJJJJ",
"JJJJJJJJJJf9bwqq9yi. >fyHz&OaH~Mwho ohq99q9x~ueJJJJJJJJJJJJJJJJJ",
"JJJJJJJJJDwhp99q9th+XqfyH~xfH~~Mwk,.,jqqqq9iSbqVJJJJJJJJJJJJJJJJ",
"JJJJJJJJJM,Du9999qshsheyH~~~~~~Mqykakyq9q9qqb~4zJJJJJJJJJJJJJJJJ",
"JJJJJJJJJfeDlfdeqqqweqqhH~~~~~~Dpqweeqq0qq9uV~upGJJJJJJJJJJJJJJJ",
"JJJJJJJJJ4x~~GFbcxyweehH~~~H~~~~SieejvvcvccV~~M2DJJJJJJJJJJJJJJJ",
"JJJJJJJJG4x~FZCZZFVVVVH~~~~~~~~~~DSSGFAAAAAG~~M1DJJJJJJJJJJJJJJJ",
"JJJJJJJJJ2c~ACCCCCF~~~H~~~DDDDG~~~H~SCCCCCCA~~b>VJJJJJJJJJJJJJJJ",
"JJJJJJJJJ2c~GGACCCV~~~~~Dh3:::tMH~~~ZCCCCCAGbxk>DJJJJJJJJJJJJJJJ",
"JJJJJJJJJ2v~H~~SCA~~~H~~Dw<<<<3v~~~HDCCCCAGk;&>=DJJJJJJJJJJJJJJJ",
"JJJJJJJJG4y26M~HFG~~~~~~~Vueyek~~~~~~ACZZGc;69>%DJJJJJJJJJJJJJJJ",
"JJJJJJJJJ;#2>6~H~~~~~~~~~~~~~~~H~~H~~~GGG~a&q99-vJJJJJJJJJJJJJJJ",
"JJJJJJJJJ,2q2,H~~G~~~H~~~~~~~~~~~~~~~~~~~~v,69q17JJJJJJJJJJJJJJJ",
"JJJJJJJJJ>2q2,~~~~G~~~~~~~~~~~~~~~~~~~~~~~~q;q98;kJJJJJJJJJJJJJJ",
"JJJJJJJJJ,4q2,H~~~~~~~H~~~~~~H~~~~H~~G~~~~Dv*4qw=uJJJJJJJJJJJJJJ",
"JJJJJJJJJs;98;h~~~~~~~~~G~~H~~~~~~~~~~~H~Anx$29q*aJJJJJJJJJJJJJJ",
"JJJJJJJJJM%9w=q~D~~~H~~~~~~~~~H~~H~~~HHDNmx5-489&uJJJJJJJJJJJJJJ",
"JJJJJJJJJD8292,jnVAAS~~~~~~G~~~~~~~FAVnnvy,=244,>xJJJJJJJJJJJJJJ",
"JJJJJJJJJJk=88>&7jbnnBNBNNNNNNNBBMNMnnzu=&=672*;xJJJJJJJJJJJJJJJ",
"JJJJJJJJJJHy;44,&$0rrehnnnnnnnnnbnngre:@>48ep4qVJJJJJJJJJJJJJJJJ",
"JJJJJJJJJJJJy%-252$@@@-,1:1,,11,,,,*+@:69skm~uyJJJJJJJJJJJJJJJJJ",
"JJJJJJJJJJJJGx6%xxtqq9:***********-6qrjMMD~~~V8bJJJJJJJJJJJJJJJJ",
"JJJJJJJJJJJJJJM2S~HDDbfpiippiuiipakDSH~~~~~~~~yuGJJJJJJJJJJJJJJJ",
"JJJJJJJJJJJJJJM6V~~~~~~~G~~~~~~~~~~~~~~~~~~~~~V2DJJJJJJJJJJJJJJJ",
"JJJJJJJJJJJJJJwf~~~~~~~~~~~~~~~~~~~G~~~~H~~~~~V2DJJJJJJJJJJJJJJJ",
"JJJJJJJJJJJJJJ6h~~G~~~~~~~~H~~~~~~~~H~~~~~~~~~M1DJJJJJJJJJJJJJJJ",
"JJJJJJJJJJJJJJ6h~~~~~~~~~H~~~~H~~~~~~~~~~H~~~~V1VJJJJJJJJJJJJJJJ",
"JJJJJJJJJJJJJJ6k~~~~~~H~~~~~~~~~~~G~~~~~~~~H~~M,DJJJJJJJJJJJJJJJ",
"JJJJJJJJJJJJJJ6h~~~~H~~~~~~H~H~~H~~~~~H~~~~~~~b;BJJJJJJJJJJJJJJJ",
"JJJJJJJJJJJJJJepH~H~~~~~~~~~~~~~~~H~~~~~H~~~~Sj%8khkDJJJJJJJJJJJ",
"JJJJJJJJJJJJJJV4S~~~~~H~H~~~~~G~~~~~~~~H~~~~Dbu82&%*eHJJJJJJJJJJ",
"JJJJJJJJJJJJJJD-h~~~H~~~~~G~~~~~~~~~~~~~~H~Dbg89q9991wv2yJJJJJJJ",
"JJJJJJJJJJJJJJD=yD~~~~~~~~~~~~~~~H~~H~~~~HSbf869qqqq92&+4JJJJJJJ",
"JJJJJJJJJJJJJJGy>sDH~H~~~~H~~~G~~~~~H~~~FMbf84476999992;hJJJJJJJ",
"JJJJJJJJJJJJJJJk#qyfbMDHHHH~~~~~~~~HHGFVmxd74444466892;hJJJJJJJJ",
"JJJJJJJJJJJJJJJM249qeisxbmMDSFSDSSSNnnbgaq422,####@;1>hJJJJJJJJJ",
"JJJJJJJJJJJJJJJJe;qq984wetkxxxxxxxxsrte2:,;@+2uiuia4=jJJJJJJJJJJ",
"JJJJJJJJJJJJJJJJf>9qq9985482;;;;;-;=*&&;;-8bbV~~~~~DMJJJJJJJJJJJ",
"JJJJJJJJJJJJJJJJH12qqq9992#1q9q90q9099wN~HJJJJJJJJJJJJJJJJJJJJJJ",
"JJJJJJJJJJJJJJJJJ14qq9q4>>aMJJJJJJJJJJJJJJJJJJJJJJJJJJJJJJJJJJJJ",
"JJJJJJJJJJJJJJJJJ,4qq94-2kJJJJJJJJJJJJJJJJJJJJJJJJJJJJJJJJJJJJJJ",
"JJJJJJJJJJJJJJJJJ,,664;uJJJJJJJJJJJJJJJJJJJJJJJJJJJJJJJJJJJJJJJJ",
"JJJJJJJJJJJJJJJJJ>&44=qJJJJJJJJJJJJJJJJJJJJJJJJJJJJJJJJJJJJJJJJJ",
"JJJJJJJJJJJJJJJJJa2##oyJJJJJJJJJJJJJJJJJJJJJJJJJJJJJJJJJJJJJJJJJ",
"JJJJJJJJJJJJJJJJJJDhffMJJJJJJJJJJJJJJJJJJJJJJJJJJJJJJJJJJJJJJJJJ",
"JJJJJJJJJJJJJJJJJJJJJJJJJJJJJJJJJJJJJJJJJJJJJJJJJJJJJJJJJJJJJJJJ",
"JJJJJJJJJJJJJJJJJJJJJJJJJJJJJJJJJJJJJJJJJJJJJJJJJJJJJJJJJJJJJJJJ",
"JJJJJJJJJJJJJJJJJJJJJJJJJJJJJJJJJJJJJJJJJJJJJJJJJJJJJJJJJJJJJJJJ",
"JJJJJJJJJJJJJJJJJJJJJJJJJJJJJJJJJJJJJJJJJJJJJJJJJJJJJJJJJJJJJJJJ"
};
