/* XPM */
static char *result[] = {
/* columns rows colors chars-per-pixel */
"64 64 246 2 ",
"   c #34250F",
".  c #303623",
"X  c #472E17",
"o  c #53351E",
"O  c #67330A",
"+  c #513B26",
"@  c #374C2D",
"#  c #386D24",
"$  c #3A7524",
"%  c #3A7D26",
"&  c #574614",
"*  c #6F5217",
"=  c #567618",
"-  c #7A6D12",
";  c #6A7D14",
":  c #5F592E",
">  c #494838",
",  c #7B4E2D",
"<  c #457B25",
"1  c #52653D",
"2  c #487733",
"3  c #567131",
"4  c #756D2C",
"5  c #355B7E",
"6  c #595344",
"7  c #575450",
"8  c #6B5945",
"9  c #6E5E50",
"0  c #7B734E",
"q  c #746354",
"w  c #7A6857",
"e  c #726C65",
"r  c #7A7764",
"t  c #797775",
"y  c #7D7D7D",
"u  c #90450C",
"i  c #86611C",
"p  c #94582C",
"a  c #8B6A35",
"s  c #9A694A",
"d  c #8C724A",
"f  c #8E704E",
"g  c #84745E",
"h  c #AA7652",
"j  c #897969",
"k  c #947C64",
"l  c #847E75",
"z  c #A56E66",
"x  c #378027",
"c  c #3B8227",
"v  c #3C8328",
"b  c #768918",
"n  c #738D18",
"m  c #46832A",
"M  c #418A2D",
"N  c #588526",
"B  c #488B31",
"V  c #558739",
"C  c #469232",
"Z  c #4A9535",
"A  c #4D9A37",
"S  c #549938",
"D  c #68942B",
"F  c #789524",
"G  c #679C39",
"H  c #53A43D",
"J  c #59A63D",
"K  c #7FAB29",
"L  c #578543",
"P  c #5A9C43",
"I  c #7B8342",
"U  c #6C9552",
"Y  c #57A940",
"T  c #5AAD43",
"R  c #5FA448",
"E  c #5DB346",
"W  c #5FB548",
"Q  c #63A74B",
"!  c #6AAA54",
"~  c #72AA5D",
"^  c #7C8F6D",
"/  c #77A763",
"(  c #76B062",
")  c #868D18",
"_  c #978C11",
"`  c #8B9717",
"'  c #929B17",
"]  c #AE910F",
"[  c #B2950A",
"{  c #AB9416",
"}  c #96A10F",
"|  c #95A419",
" . c #98A71B",
".. c #AFAA12",
"X. c #8C8F2B",
"o. c #938827",
"O. c #B69B26",
"+. c #AF9439",
"@. c #9AA631",
"#. c #A9B12D",
"$. c #BEA837",
"%. c #CEB60A",
"&. c #C2AD19",
"*. c #CAB719",
"=. c #CAB61B",
"-. c #D2BC15",
";. c #C9B326",
":. c #C6AA3B",
">. c #B7C63A",
",. c #D3CC07",
"<. c #D9C90A",
"1. c #D8C213",
"2. c #DDCA11",
"3. c #E3CE07",
"4. c #EAD607",
"5. c #F2DE07",
"6. c #E3CA16",
"7. c #F9E402",
"8. c #FFEB00",
"9. c #D6C122",
"0. c #E8D52A",
"q. c #958B4E",
"w. c #B89B46",
"e. c #AA8F53",
"r. c #B99859",
"t. c #B3AD4E",
"y. c #ACB344",
"u. c #93846C",
"i. c #998569",
"p. c #86926A",
"a. c #8C8478",
"s. c #998874",
"d. c #9C8C74",
"f. c #9D9177",
"g. c #A68969",
"h. c #AF9165",
"j. c #B4956B",
"k. c #A38D75",
"l. c #A7957A",
"z. c #A3947C",
"x. c #B79C75",
"c. c #8CB179",
"v. c #B5A86D",
"b. c #C19D5D",
"n. c #C5AB48",
"m. c #C5B449",
"M. c #CCA951",
"N. c #CAB455",
"B. c #C5996E",
"V. c #C7A36C",
"C. c #CCB266",
"Z. c #CBA775",
"A. c #D5AE78",
"S. c #C9B476",
"D. c #DABB77",
"F. c #D7B17C",
"G. c #D9B27B",
"H. c #BBCA45",
"J. c #CBCA47",
"K. c #C4D346",
"L. c #CBDB4C",
"P. c #C4C17A",
"I. c #285C8C",
"U. c #185FA1",
"Y. c #697884",
"T. c #7E8284",
"R. c #828182",
"E. c #938D81",
"W. c #968E86",
"Q. c #95968F",
"!. c #989589",
"~. c #AE8F81",
"^. c #A89884",
"/. c #AB9C84",
"(. c #B19D8B",
"). c #A59E95",
"_. c #98B28A",
"`. c #B5A28B",
"'. c #B9A58E",
"]. c #ADA799",
"[. c #B8A692",
"{. c #B8A897",
"}. c #A9B397",
"|. c #B7ADA5",
" X c #ACB1A1",
".X c #BAB3A8",
"XX c #B9B7B4",
"oX c #D89C8E",
"OX c #C6AB85",
"+X c #C9B786",
"@X c #DAB985",
"#X c #CFB495",
"$X c #C5B5A7",
"%X c #C4BCB5",
"&X c #CABDB1",
"*X c #D0BFB6",
"=X c #A7C49B",
"-X c #B9CAAD",
";X c #D9CE8B",
":X c #D7C29B",
">X c #E1C287",
",X c #E4C28C",
"<X c #E3D680",
"1X c #E8C893",
"2X c #EDD39C",
"3X c #F3D49C",
"4X c #F6D89F",
"5X c #CAC1BA",
"6X c #D4C7BB",
"7X c #D1D3B5",
"8X c #F7D9A1",
"9X c #F6D8A2",
"0X c #F1D9B0",
"qX c #FBE2B3",
"wX c #C0BEC0",
"eX c #C7C5C8",
"rX c #D4CAC3",
"tX c #D8CEC7",
"yX c #CDD6C4",
"uX c #DBD3CB",
"iX c #D4DCCD",
"pX c #CECED1",
"aX c #DDDCD3",
"sX c #D9D9D5",
"dX c #E2D8C8",
"fX c #E2DCD5",
"gX c #E9DFD1",
"hX c #E3DFDA",
"jX c #DCE3D7",
"kX c #F9E7C7",
"lX c #FFE6E4D7",
"zX c #FFE4E3DC",
"xX c #FFE9E4DD",
"cX c #FFE5E5E3",
"vX c #FFE9E6E3",
"bX c #FFEDEAE4",
"nX c #FFEDECEA",
"mX c #FFF1EEEC",
"MX c #FFEFF0EF",
"NX c #FFF7E6",
"BX c #FFF2F0EE",
"VX c #FFFEFEFF",
"CX c #FFF7F7F8",
"ZX c #FFF8F7F8",
"AX c #FFF7F8F8",
"SX c #FFF9F9F9",
/* pixels */
"VXVXVXVXVXVXVXVXVXVXVXAXVXVXVXVXVXVXAXVXVXVXVXVXVXVXVXVXVXVXVXVXVXVXVXVXVXVXVXVXVXAXVXVXVXVXVXZXVXVXVXVXVXVXVXVXVXVXVXVXVXVXVXZX",
"VXVXVXVXAXVXVXVXVXVXVXVXVXVXVXVXVXVXVXVXVXVXVXVXVXAXVXVXVXVXAXVXVXVXVXVXVXVXVXVXZXZXVXVXVXVXVXVXVXVXVXVXVXVXVXVXVXVXVXVXVXVXVXVX",
"VXVXVXAXVXVXVXVXAXVXVXVXVXVXVXVXVXVXVXAXVXAXVXVXAXVXVXVXVXVXVXAXAXSXSXSXSXSXZXSXZXZXZXZXVXVXVXVXVXVXVXVXVXVXVXVXVXVXVXVXVXVXVXVX",
"VXVXVXVXVXVXVXVXVXVXVXVXVXAXZXVXVXVXVXVXVXVXVXVXVXVXVXVXAXSXAXBXnXzXjXiXiXiXjXzXnXMXBXZXAXVXVXVXVXVXVXZXVXVXVXVXVXVXVXVXAXVXVXVX",
"VXVXVXVXVXVXVXVXVXVXVXVXVXVXVXVXVXVXVXVXVXAXAXAXVXVXVXSXVXyX}.c./ ! Q R R R R P ! ~ / -XVXAXVXVXVXVXVXVXVXVXVXVXVXVXVXVXVXVXVXVX",
"ZXVXVXAXVXAXAXVXVXVXVXAXVXVXAXVXAXAXVXVXVXAXAXAXVXAXVXiXc.R H E E E W W E S P A M c $ 2 }.VXAXVXVXVXVXVXVXVXVXVXVXVXVXVXVXVXVXVX",
"VXVXVXVXVXVXVXVXVXVXVXVXVXVXVXVXVXAXVXVXAXVXSXAXSXcX_.Q E E E T T H H Y T S F } ....} } ) P.gXVXZXVXVXVXVXVXVXVXVXVXVXZXVXVXVXZX",
"VXVXVXVXVXVXVXVXAXVXVXVXVXVXAXZXcXlXVXSXSXSXSXSX7X( E E H A C M v v C H K ,.5.8.8.8.8.8.8.7.0.<XVXVXVXVXVXVXVXVXVXZXVXVXVXVXVXVX",
"VXVXVXVXVXVXVXVXVXVXVXVXVXVXVXSX-X! _.=XiXjXjX=XQ E T A m c c m n N S  .4.8.8.8.8.8.7.5.6.2.1.=.7XZXVXVXVXVXVXVXVXVXVXVXVXVXVXVX",
"AXVXVXVXVXVXZXVXVXVXVXVXVXVXZXSXjX! E E Q W Q W E H M c c c c m ,.5.,.5.8.8.8.8.8.8.5.2.=.=.=.=.D.AXVXVXVXVXVXVXVXVXVXVXVXZXVXVX",
"VXVXVXVXVXVXVXVXVXVXVXAXVXAXVXVXCX=XT Y E E E Y C v c c c c v < ,.8.8.8.8.8.7.4.2.2.9.*.=.=.-.=.m.BXZXZXVXVXAXVXVXVXAXVXVXVXVXVX",
"VXVXZXVXVXVXVXVXVXVXVXVXVXVXVXVXVXnXc.Y C A A v c c c v c v v % ..8.2.2.4.<.{ * - ..*.*.=.3.2.&...2XZXVXVXAXVXVXVXVXVXVXVXVXVXAX",
"VXVXVXZXVXVXVXVXVXVXCXVXVXVXVXVXVXAXjX! H M c v v v v v c v c c n 8.4.*.=.=._ * X _ ;.O.1.4.*.&.5.0.nXAXVXVXVXVXVXVXVXVXVXVXVXVX",
"VXVXVXVXVXVXAXVXVXVXVXVXSXSXAXSXVXVXVX7XQ H Z C M C H M c c m V x %.5.*.=.=.*.$.i o r.M.6.&.w.M.7.2.;XAXVXAXVXVXVXAXVXVXAXVXVXVX",
"VXVXVXVXVXVXVXVXVXVXCXCXmXhXfXvXBXVXZXSXyXc.! W R Q Q A M c V +Xq.) 3.O.$.n.w.h g.0 h.:.O.b.A.V.3.<.N.mXZXAXVXVXVXVXVXVXVXVXVXVX",
"VXVXVXVXVXVXZXVXVXZXxX].j l.$X{..X&XrXfXmXVXzXjXiXiXiX}.A v V S.;XN.3.m.2XOXs.@ . d e.,X1X3X,Xa & { :.lXZXVXAXVXVXVXVXVXVXAXVXVX",
"ZXVXVXVXVXVXAXVXCXMX).q 9 q ~.$X`.{.{.[..X6XaXnXSXSXSXCX_.v v v.G.D.3.N.4XtXXX@   8 Z.2X8X1Xd > & _ :.xXSXVXVXVXVXVXVXZXVXAXVXVX",
"VXVXVXVXVXVXVXVXSXuXr q 9 9 q s./.^.f.z.l.z.`.{.cXsXBXSXzX/ v I A.w.6.n.4XNX%XX o W.1X9X4Xj.f h +.=.n.nXAXVXVXVXVXVXVXVXVXVXVXVX",
"VXVXVXVXZXVXVXVXZX.Xg w q q q w /./.z.z.d.u.f.^.).).nXAXAXiXP V A.:.4.:.3XkXrXo g fX2X9X3Xx.>   a &.C.VXVXVXAXVXVXAXVXVXSXVXVXVX",
"VXVXVXZXVXVXVXVXAX$Xs.).~.W.W.a.^.l././.^.u.u.W.).aXVXAXAXZXeXV q.9.3.:.2X2XgX|.fXkX9X9X9X{.. X f O.7XCXVXVXVXVXVXVXVXVXVXVXVXVX",
"VXVXVXVXVXVXVXVXZXVXvXVXmXVXZXuXh.k.z./.l.x.x.d.{.ZXZXAXAXSXSX X4 3.3.n.4X9X2X0XqX4X9X4XqX$XX q `.w.xXZXAXAXVXVXVXVXZXVXVXVXVXVX",
"VXVXVXVXVXVXVXVXVXVXVXVXVXZXVX:Xh.f./.^.k.V.1X@X$XVXZXSXSXSXSXbXm.4.1.A.8X8X8X4X4X9X4X1X9XrX8 ].S.r.dXBXAXAXVXVXVXVXVXVXVXVXVXVX",
"VXZXAXVXVXVXZXVXVXVXVXVXAXZXbX@Xh.k.^.d.j.G.3XD.+XlXnXcXzXlXlX-Xp...;.2X8X8X9X9X9X9X4XF.1X0XrX#XV.+.#XVXAXAXVXVXVXAXVXVXVXVXVXVX",
"VXVXVXVXVXVXVXVXVXVXVXVXAXZXvX,XV.h.^.u.x.>X,XG.x.h.H.H.y.y.@.G E D F 1X9X9X9X9X,X,X3X4X8X3X@XF.r.+.hXZXVXVXVXVXVXVXAXVXVXVXVXVX",
"VXAXVXVXVXVXVXVXVXAXVXVXVXAXmX1X@Xh.j u.j.>X1XG.A.@. . .|  .n S W C < S.9X9X8X@Xz ~.oX4X3X,XG.A.+.m.VXVXVXVXVXVXVXVXVXVXVXVXZXVX",
"VXVXVXVXVXAXVXVXVXVXVXVXVXVXVX6XF.j.k f.g.h.Z.G.F.e.) ' | ) D E W C I @X9X9X9XoXz s A.@XG.A.G.b.O.m.nXVXVXVXVXVXVXVXVXVXVXVXVXVX",
"VXVXVXVXVXVXVXVXZXVXVXVXVXVXAXmXOXl.u.u.u.k i.r.r.t.>.' n S W W W B h.3X,X1X2X1XB.B.F.F.G.A.Z.OX9.N.MXeX.XpXVXVXVXVXVXVXVXAXVXVX",
"VXVXAXVXVXVXVXVXAXVXVXVXVXAXAXSXsX`.f.g u.s.f.u.y.L.L.K. .D J W Y N w.1XA.j.r.B.A.A.A.Z.V.OXuXbXJ.;XeXT.T.W.sXSXZXVXVXAXVXVXVXVX",
"VXVXVXVXVXAXVXVXVXVXVXVXVXVXAXZXhX[./.u.u.u.s.f.t.L.L.L.L.>.F D m n o.e.+.) ) ) a h.d.u.a.cXAXVXF.S.E.U.I.R.XXZXVXVXVXVXVXVXVXVX",
"VXVXVXVXVXVXAXVXVXVXVXVXVXVXAXZXxX'./.f.f.f.u.d.q.y.L.L.L.L.>.#.b b ` ' | |  . .b ^ Q.a.g +X+Xv.+.{ r U.I.Y..XAXVXVXVXVXVXVXSXVX",
"VXVXVXVXVXVXVXVXVXVXVXAXVXVXVXZXvX[./.z.f.d.f.s.s.i.y.K.L.L.L.>.>. .| | | | |  .| 0 l q.{ O.[ [ [ ] r 5 Y.t 5XSXSXVXVXVXVXVXVXVX",
"VXAXVXVXVXVXVXVXVXVXVXVXVXAXVXZXmX[.z.^.f././.f.z.(.k.q.>.L.L.H.#.| | | | | | | | d l o.[ [ { { w.S.f.T.y W.nXSXVXVXVXVXVXVXVXVX",
"VXVXVXVXAXVXVXZXVXVXVXVXVXVXVXAXVXtXl././.`.'.'.[.`.p.2 D H.L.H. .| | | |  .| | | 0 ^ o.{ w.#XxXmXZXbXXX|.cXAXVXAXVXVXVXVXVXVXAX",
"VXVXAXZXVXVXVXVXVXVXVXVXVXVXVXVXVX&X'.`.'.'.{.l.g 3 m C Y V #.K. . .| ' ` ) ` | | 0 R.w : XXSXSXZXZXZXZXZXZXAXAXVXVXVXVXVXVXVXVX",
"VXVXVXVXVXVXVXVXAXVXVXVXVXVXVXZXZX6X{.5XfXvXyX^ 6 V T W R Z < F X.n = = = ; ' ` : t R.Y.7 pXSXSXVXVXVXVXVXVXVXVXVXVXVXVXVXVXVXVX",
"VXVXVXVXVXVXVXVXVXVXAXVXVXVXVXVXVXVXVXAXAXiX( S 6 1 Y E E T v c c x v v % n ` : 6 t R.l R.MXSXSXVXVXZXVXVXZXVXVXVXVXVXAXAXVXVXVX",
"VXVXZXVXVXVXVXVXVXVXVXVXVXVXVXVXVXVXVXAXzX( T T 1 6 B T S E Z c v v c c x = & + 7 e ^ y XXZXVXVXVXVXVXZXVXVXVXVXVXVXVXVXVXVXVXVX",
"VXAXVXVXVXVXVXAXVXVXAXVXZXVXVXVXVXVXVXVXc.Y W T 2 6 1 Z C A A v c v c v x & & * a.a.e XXVXZXVXVXVXVXVXVXVXVXVXVXVXVXVXVXVXVXVXVX",
"AXVXVXVXVXVXVXVXVXVXVXVXVXVXVXVXVXVXAX-XY E W T % > 9 3 < % v v v v v m 3 * i 4 ^.W.W.nXVXVXVXVXVXVXVXVXVXVXVXVXVXAXVXAXVXVXVXAX",
"VXVXVXVXVXVXAXVXVXVXVXVXVXVXVXVXVXVXsX~ E W W Y % > 4 ;.#.) < v v c B N i i i i ^.E.).VXVXVXVXAXZXVXVXVXVXVXVXZXVXVXVXVXVXVXVXVX",
"VXVXVXVXVXVXVXVXVXZXVXVXVXVXVXZXVXVX_.S Z L Y A % # o.1.%.1.b $ c Z J 4 a d d d.].a.].VXVXVXVXVXVXAXVXVXVXAXVXVXVXVXVXVXVXVXVXVX",
"VXZXVXVXZXVXAXVXVXVXVXVXVXVXVXVXVXVXjX).XX.X).L % % n %.&.%.* > @ 2 p.{.].]. X].^.a. XCXVXVXVXVXVXVXVXVXVXVXVXVXVXVXVXVXVXAXVXVX",
"VXVXVXVXVXVXVXVXVXVXVXZXVXVXVXVXVXVXnXfXSXsXwX^ $ M $ ; _ - > > 6 r !.!.E.E.W.!.!.).sXAXZXVXVXVXVXVXVXVXVXVXVXVXVXAXVXVXVXVXVXVX",
"VXVXVXAXVXVXVXVXVXVXVXVXZXVXVXVXVXVXvXlXSXpXeXQ.# C M $ < $ # 2 .XaXtXpXsXhXbXnXVXVXAXVXVXVXVXVXVXVXVXVXVXAXVXVXVXVXVXVXVXZXVXVX",
"VXVXVXVXZXAXVXVXVXVXVXVXVXVXVXVXZXZX&XdXSXeXeXE.# A C m % v B / nXCXZXZXZXSXZXZXVXVXVXVXVXAXVXVXVXVXVXAXVXVXVXZXAXVXVXVXVXVXVXVX",
"AXVXVXVXVXVXVXVXVXVXVXVXVXVXVXVXZXZXg.6XSXpXeX^ % Y A v % v S -XCXAXVXVXAXAXVXVXVXVXVXVXVXVXVXVXVXVXVXVXVXVXVXVXVXVXVXVXVXVXVXZX",
"VXVXVXVXAXVXVXVXZXVXVXVXZXVXVXVXZXmXs *XCXeXeX^ % Y Y v v M U nXCXAXAXAXAXVXAXVXVXAXVXVXVXVXVXZXVXVXVXVXVXVXVXVXVXVXVXVXVXVXVXVX",
"ZXVXVXZXVXVXVXVXVXVXVXVXVXVXVXVXZXmXs {.SXsXpX-XL B Y v v v U nXCXAXAXAXAXVXVXVXVXVXVXVXVXVXVXVXVXVXVXVXVXZXVXVXVXVXVXZXVXVXVXVX",
"VXVXVXVXVXVXVXVXVXVXVXVXVXVXVXVXVXBXs , 5XcXtXhXXXQ.c.U 2 L _.mXVXVXVXVXVXVXVXZXVXVXVXVXVXVXVXVXAXVXVXVXVXVXVXVXVXVXVXVXAXVXVXZX",
"VXVXAXVXVXVXVXVXVXVXVXVXVXVXVXVXZXZXz O ^.fXmXxXvXeXwXXX).sXBXVXAXVXVXVXVXVXVXVXVXVXVXVXVXVXVXZXVXVXVXVXAXVXVXVXVXVXVXVXVXVXVXVX",
"ZXVXVXVXVXVXVXVXVXVXVXVXVXVXVXVXVXZX{.$XAXAXnXnXSXcXwXXXrXCXCXVXVXVXVXZXVXVXVXAXVXVXVXAXVXVXVXVXVXVXVXVXVXVXVXVXVXVXVXVXVXVXVXVX",
"VXVXVXVXSXVXVXVXVXVXVXSXAXVXVXVXVXVXVXZXAXVXfXZXSXsXwXXXmXZXVXVXVXVXVXVXAXVXVXVXAXVXVXVXVXZXVXVXVXAXZXVXVXVXVXVXAXVXVXVXVXAXVXVX",
"VXVXVXVXSXVXVXVXVXVXVXVXVXVXVXVXVXVXVXVXZX*XhXSXMXeX%XvXSXZXVXVXVXVXVXVXVXVXVXVXVXVXVXVXVXVXVXVXVXVXVXVXVXVXAXVXVXVXVXAXVXVXZXVX",
"VXVXVXVXVXVXVXVXVXVXVXVXVXVXVXVXVXVXVXZXnXh tXcXeXeXuXCXZXZXVXVXVXZXVXVXVXVXVXVXVXVXVXZXVXVXVXVXVXVXVXVXAXVXVXVXVXVXVXVXVXVXVXVX",
"VXVXVXVXVXVXVXVXVXVXVXVXVXVXVXSXZXVXZXZX&Xu k wXXXtXCXCXZXZXZXVXVXVXAXVXVXAXVXVXVXVXVXVXVXVXVXVXVXVXAXVXVXVXVXVXVXVXVXZXVXVXVXAX",
"AXVXVXVXVXVXVXVXVXSXVXVXVXVXVXVXZXZXZXBXh u O , %XZXCXCXZXZXVXVXVXVXVXVXZXVXVXVXVXVXAXVXVXVXVXVXVXVXVXVXVXVXVXVXVXVXVXVXVXVXVXVX",
"VXVXVXVXVXVXVXVXVXVXVXVXVXSXVXVXVXZXZXvXp u O f nXZXCXCXCXAXZXSXSXSXSXZXZXVXBXVXVXVXVXVXVXVXVXVXVXVXVXVXVXVXVXVXAXVXVXVXVXVXVXVX",
"VXVXVXVXVXVXVXVXVXVXVXVXVXVXVXVXVXVXZXxXp O p tXSXZXAXAXZXZXCXMXhX6X*X&X*XfXfXfXhXvXmXVXVXVXVXVXVXVXVXVXVXAXVXVXZXVXAXVXVXZXVXVX",
"VXVXVXVXSXVXVXVXVXVXVXVXVXVXVXVXVXVXZXxXp O z fXfXsXtXrX&X$X{.(.k.i.k k s.(.(.~.(.[.dXBXmXVXVXVXVXVXSXVXVXVXVXVXVXVXVXVXVXVXVXAX",
"VXVXVXVXVXVXVXVXVXVXVXVXVXVXVXVXZXZXZXhXs * s.~.~.~.(.(.(.[.[.[.$X[.{.$X&X&X&X$X$X|.$X6XrXtXuXBXVXVXVXVXVXVXVXVXVXVXVXVXVXVXVXVX",
"VXVXVXVXVXVXVXVXVXVXVXVXVXVXVXVXVXVXVXmXfXsXfXhXxXbXnXmXmXVXVXVXVXVXVXVXZXZXZXZXVXVXVXBXVXBXmXVXVXVXVXVXVXVXVXVXVXVXVXVXZXVXVXAX",
"VXSXVXVXVXVXVXVXVXVXVXVXVXVXVXVXVXVXVXZXVXZXAXZXAXAXAXAXVXVXVXVXVXVXVXVXZXZXVXAXVXVXVXVXVXVXVXVXVXVXSXVXAXVXVXZXVXVXVXVXVXVXVXVX",
"VXVXVXVXVXSXVXVXVXAXVXVXVXVXSXVXVXVXVXVXVXVXVXVXVXVXAXVXVXVXVXVXVXVXZXVXVXVXAXVXVXVXVXVXVXVXVXVXVXVXVXVXVXVXVXVXVXAXAXVXVXVXVXVX",
"VXVXVXVXVXVXVXVXVXVXVXVXVXVXVXVXVXVXVXVXVXVXVXVXVXVXVXAXVXVXVXVXVXVXVXVXVXVXVXVXVXVXVXVXVXVXVXVXVXVXVXVXVXVXVXVXZXVXVXVXZXVXVXVX"
};
