/* XPM */
static char *result[] = {
/* columns rows colors chars-per-pixel */
"64 64 245 2 ",
"   c #34250F",
".  c #303623",
"X  c #472E17",
"o  c #53351E",
"O  c #67330A",
"+  c #703506",
"@  c #513B26",
"#  c #374C2D",
"$  c #386D24",
"%  c #3A7524",
"&  c #3A7D26",
"*  c #574614",
"=  c #6F5217",
"-  c #567618",
";  c #7A6D12",
":  c #6A7D14",
">  c #5F592E",
",  c #494838",
"<  c #7B4E2D",
"1  c #457B25",
"2  c #52653D",
"3  c #487733",
"4  c #567131",
"5  c #756D2C",
"6  c #595344",
"7  c #575450",
"8  c #6B5945",
"9  c #6E5E50",
"0  c #7B734E",
"q  c #746354",
"w  c #7A6857",
"e  c #726C65",
"r  c #7A7764",
"t  c #797775",
"y  c #7D7D7D",
"u  c #90450C",
"i  c #86611C",
"p  c #94582C",
"a  c #8B6A35",
"s  c #9A694A",
"d  c #8C724A",
"f  c #8E704E",
"g  c #84745E",
"h  c #AA7652",
"j  c #897969",
"k  c #947C64",
"l  c #847E75",
"z  c #A56E66",
"x  c #378027",
"c  c #3B8227",
"v  c #3C8328",
"b  c #768918",
"n  c #738D18",
"m  c #46832A",
"M  c #418A2D",
"N  c #588526",
"B  c #488B31",
"V  c #558739",
"C  c #469232",
"Z  c #4A9535",
"A  c #4D9A37",
"S  c #549938",
"D  c #68942B",
"F  c #789524",
"G  c #679C39",
"H  c #53A43D",
"J  c #59A63D",
"K  c #7FAB29",
"L  c #578543",
"P  c #5A9C43",
"I  c #7B8342",
"U  c #6C9552",
"Y  c #57A940",
"T  c #5AAD43",
"R  c #5FA448",
"E  c #5DB346",
"W  c #5FB548",
"Q  c #63A74B",
"!  c #6AAA54",
"~  c #72AA5D",
"^  c #7C8F6D",
"/  c #77A763",
"(  c #76B062",
")  c #868D18",
"_  c #978C11",
"`  c #8B9717",
"'  c #929B17",
"]  c #AE910F",
"[  c #B2950A",
"{  c #AB9416",
"}  c #96A10F",
"|  c #95A419",
" . c #98A71B",
".. c #AFAA12",
"X. c #8C8F2B",
"o. c #938827",
"O. c #B69B26",
"+. c #AF9439",
"@. c #9AA631",
"#. c #A9B12D",
"$. c #BEA837",
"%. c #CEB60A",
"&. c #C2AD19",
"*. c #CAB719",
"=. c #CAB61B",
"-. c #D2BC15",
";. c #C9B326",
":. c #C6AA3B",
">. c #B7C63A",
",. c #D3CC07",
"<. c #D9C90A",
"1. c #D8C213",
"2. c #DDCA11",
"3. c #E3CE07",
"4. c #EAD607",
"5. c #F2DE07",
"6. c #E3CA16",
"7. c #F9E402",
"8. c #FFEB00",
"9. c #D6C122",
"0. c #E8D52A",
"q. c #958B4E",
"w. c #B89B46",
"e. c #AA8F53",
"r. c #B99859",
"t. c #B3AD4E",
"y. c #ACB344",
"u. c #93846C",
"i. c #998569",
"p. c #86926A",
"a. c #8C8478",
"s. c #998874",
"d. c #9C8C74",
"f. c #9D9177",
"g. c #A68969",
"h. c #AF9165",
"j. c #B4956B",
"k. c #A38D75",
"l. c #A7957A",
"z. c #A3947C",
"x. c #B79C75",
"c. c #8CB179",
"v. c #B5A86D",
"b. c #C19D5D",
"n. c #C5AB48",
"m. c #C5B449",
"M. c #CCA951",
"N. c #CAB455",
"B. c #C5996E",
"V. c #C7A36C",
"C. c #CCB266",
"Z. c #CBA775",
"A. c #D5AE78",
"S. c #C9B476",
"D. c #DABB77",
"F. c #D7B17C",
"G. c #D9B27B",
"H. c #BBCA45",
"J. c #CBCA47",
"K. c #C4D346",
"L. c #CBDB4C",
"P. c #C4C17A",
"I. c #285C8C",
"U. c #185FA1",
"Y. c #697884",
"T. c #7E8284",
"R. c #828182",
"E. c #938D81",
"W. c #968E86",
"Q. c #95968F",
"!. c #989589",
"~. c #AE8F81",
"^. c #A89884",
"/. c #AB9C84",
"(. c #B19D8B",
"). c #A59E95",
"_. c #98B28A",
"`. c #B5A28B",
"'. c #B9A58E",
"]. c #ADA799",
"[. c #B8A692",
"{. c #B8A897",
"}. c #A9B397",
"|. c #B7ADA5",
" X c #ACB1A1",
".X c #BAB3A8",
"XX c #B9B7B4",
"oX c #D89C8E",
"OX c #C6AB85",
"+X c #C9B786",
"@X c #DAB985",
"#X c #CFB495",
"$X c #C5B5A7",
"%X c #C4BCB5",
"&X c #CABDB1",
"*X c #D0BFB6",
"=X c #A7C49B",
"-X c #B9CAAD",
";X c #D9CE8B",
":X c #D7C29B",
">X c #E1C287",
",X c #E4C28C",
"<X c #E8C893",
"1X c #EDD39C",
"2X c #F3D49C",
"3X c #F6D89F",
"4X c #CAC1BA",
"5X c #D4C7BB",
"6X c #D1D3B5",
"7X c #F7D9A1",
"8X c #F6D8A2",
"9X c #F1D9B0",
"0X c #FBE2B3",
"qX c #C0BEC0",
"wX c #C7C5C8",
"eX c #D4CAC3",
"rX c #D8CEC7",
"tX c #CDD6C4",
"yX c #DBD3CB",
"uX c #D4DCCD",
"iX c #CECED1",
"pX c #DDDCD3",
"aX c #D9D9D5",
"sX c #E2D8C8",
"dX c #E2DCD5",
"fX c #E9DFD1",
"gX c #E3DFDA",
"hX c #DCE3D7",
"jX c #FFF9E7C7",
"kX c #FFE6E4D7",
"lX c #FFE4E3DC",
"zX c #FFE9E4DD",
"xX c #FFE5E5E3",
"cX c #FFE9E6E3",
"vX c #FFEDEAE4",
"bX c #FFEDECEA",
"nX c #FFF1EEEC",
"mX c #FFEFF0EF",
"MX c #FFFFF7E6",
"NX c #FFF2F0EE",
"BX c #FFF7F7F7",
"VX c #FFF7F7F8",
"CX c #FFF8F7F8",
"ZX c #FFF7F8F8",
"AX c #FFF9F9F9",
/* pixels */
"BXBXBXBXBXBXBXBXBXBXBXZXBXBXBXBXBXBXBXBXBXBXZXBXBXBXBXBXZXZXZXZXBXBXBXBXBXBXBXCXBXBXBXBXBXBXBXBXBXBXBXBXBXZXBXBXBXBXBXCXBXBXBXBX",
"BXBXBXBXZXBXBXBXBXBXBXBXBXBXBXBXZXBXBXBXBXBXZXZXBXBXBXBXZXZXZXBXBXBXBXBXBXBXBXBXZXBXBXBXZXBXZXBXBXBXZXBXBXBXBXBXBXBXBXBXBXBXBXBX",
"BXBXBXZXBXBXBXBXZXBXBXBXBXBXBXBXBXBXZXZXBXZXZXZXZXZXBXZXAXAXCXCXBXBXBXZXBXBXBXBXBXBXBXBXBXBXBXBXBXBXBXBXBXBXBXZXBXBXBXBXBXBXBXCX",
"BXBXBXBXBXBXBXBXBXBXBXBXBXZXCXBXZXZXZXZXZXmXmXbXlXhXuXuXuXpXlXbXBXCXCXBXZXBXBXBXBXBXBXBXBXBXBXBXBXBXBXBXBXBXBXBXCXBXBXBXBXBXBXBX",
"BXBXBXBXBXBXBXBXBXBXBXBXBXBXBXBXZXZXZXZX-X/ / U P R R R Q Q ! / c.}.tXBXCXBXBXBXBXBXZXBXZXZXZXZXBXZXBXBXBXBXBXBXBXBXBXBXBXZXBXBX",
"CXBXBXZXBXZXZXBXZXBXBXBXBXBXZXBXAXAXBX}.3 c v v Z P A T W W W W J J R c.uXBXBXBXBXBXZXZXBXZXZXZXBXBXBXZXBXBXBXBXBXAXBXBXBXBXBXBX",
"BXBXBXBXBXBXBXBXBXBXBXBXBXBXBXCXZXjXP.` } } ....' F J Y Y H H Y E E W E ! _.lXCXBXBXZXZXZXBXAXZXBXBXBXBXBXBXBXBXBXBXBXBXCXBXBXBX",
"BXBXBXBXBXBXBXBXBXBXBXBXZXZXCXNXD.0.5.8.8.8.8.8.8.7.,.K J C v v v v A J W T ~ tXAXAXAXAXAXNXhXmXZXBXBXBXBXZXBXBXBXBXBXBXBXBXBXBX",
"BXZXBXBXBXBXBXBXBXBXBXBXBXBXAX9X=.-.1.6.5.8.8.8.8.8.8.5. .A N n M c c v A E E ! =XhXhXtX-Xc.! -XCXBXBXBXBXBXBXBXBXBXBXBXBXBXBXBX",
"BXBXBXBXBXBXBXBXBXBXBXBXZXBXZXS.*.=.=.=.2.5.7.8.8.8.8.8.5.,.5.,.N c v v v v A E W ! ! T E J ! hXCXBXCXBXBXBXBXBXBXBXBXBXBXBXAXBX",
"BXBXBXBXBXBXZXBXBXBXBXBXBXBXmXt.*.-.*.=.=.-.1.2.4.7.8.8.8.8.8.,.c c v v & v v C H E W E J E =XZXCXCXBXBXBXZXBXZXBXBXBXBXBXBXBXBX",
"BXBXBXBXBXZXBXBXBXZXBXBXBXBX1X*.&.6.4.-.=.*.=.; = { 2.4.2.<.8...c v v v v v v v v A A C H c.bXZXBXZXBXBXBXBXBXBXBXBXBXZXBXBXBXBX",
"BXBXZXBXBXBXBXBXBXBXBXZXBXbX0.4.&.&.4.-.O.&._   * ' =.=.=.5.7.n x c v v v v v x v v v J ! hXCXBXBXZXBXBXZXBXBXBXBXBXBXBXBXBXBXBX",
"BXBXBXBXBXBXBXBXBXBXBXZXBX;X2.7.M.w.&.6.M.b.* < =.*.=.=.=.5.%.& V M v v M H C C M A J ! 6XZXBXBXCXCXAXCXZXZXBXBXZXBXBXBXBXBXBXBX",
"BXBXBXBXBXZXBXBXZXBXZXZXnXm.1.3.C.A.b.+.n.B.0 e.h r.n.$.O.3.) q.D.V m v S R R T Q ! c.tXZXZXZXNXzXdXkXnXZXZXBXBXBXBXBXBXBXBXBXBX",
"BXBXBXBXBXBXBXBXBXBXZXAXkX$.{ * a ,X2X,X>Xe.d . # u.OX1Xm.3.N.,XS.B v S }.hXuXuXuXlXZXNXhXeX%X.X{.$Xz.j ].zXAXBXBXBXBXBXBXAXBXBX",
"ZXBXBXBXBXBXBXBXBXZXBXZXzX:._ O * q <X7X2XZ.8   . 4XrX8XN.6.D.A.v.& v _.BXVXAXZXbXpX5X.X{.{.{.[.{./.9 9 q ).mXCXCXCXBXBXBXBXBXBX",
"BXBXBXBXBXBXBXBXBXBXBXZXnXt.&.n.g.f x.8X3X<X!.X X %XMX8Xn.3.r.Z.U c ~ xXVXBXpXlX{.`.z.l.z.f.l./.k.q 9 9 q g iXCXCXCXBXBXBXCXBXBX",
"BXBXBXBXBXBXBXBXBXBXBXBXMXC.&.d   , x.8X8X2XkXg o 5XjX2Xn.4.:.F.N P aXCXZXcX].)./.f.s.k.z.z././.w 9 q w g g .XCXCXCXCXBXBXBXBXBX",
"BXBXBXBXBXBXBXBXBXBXBXBXCX6XO.f X . ].1X7X7XjXdX|.fX1X1X:.4.6.q.V wXCXZXZXVXdX!.E.u.p.z././.l./.s.W.E.^.).d..XZXCXCXCXCXBXCXBXBX",
"BXBXBXBXBXBXBXBXBXBXBXZXZXvXw.x.q X $X0X7X3X7X0X9X1X8X3Xn.<.<.b  XCXZXBXZXZXZX.Xd.x.x.l./.z.f.h.rXVXBXnXBXcXNXCXVXBXBXBXBXBXBXBX",
"BXBXBXBXBXBXBXBXBXBXBXBXBXsXr.OX].< 5X9X<X3X3X3X3X8X8X7XD.1.3.m.vXCXCXCXZXZXZX$X@X<XV.k.^./.l.h.#XNXZXZXVXZXBXBXBXBXBXBXBXBXBXCX",
"BXBXBXBXBXBXBXBXBXBXZXZXNX#X+.b.$X5X9X1XA.8X8X7X8X8X8X8X<X;.#.p.-XlXkXzXmXmXlXZ.G.2XG.x.f.l.k.h.,XbXCXZXBXBXBXBXBXBXBXBXBXBXBXBX",
"BXBXBXBXAXBXBXBXBXZXZXZXCXdX+.b.G.@X1X8X2X8X,X,X3X8X8X8X<XX.D T G @.y.y.t.H.e.V.G.,X>Xx.a.z.g.V.<XcXCXZXBXBXBXBXBXBXBXCXBXBXBXBX",
"BXBXAXBXBXBXBXBXBXBXAXBXBXNXN.+.A.G.,X2X3XG.~.z oX7X7X7XS.1 C E S n  . . . .+.S.G.<X@Xj.s.k h.@X:XnXZXBXBXBXBXBXBXBXBXBXCXBXBXBX",
"BXBXBXBXBXBXBXBXBXBXZXBXCXnXm.O.V.A.A.G.@XA.s z oX7X7X7X>XI C E W D b | ' ) e.A.G.Z.j.g.d.u.j.F.5XZXBXBXBXBXCXBXBXBXBXBXBXBXBXBX",
"BXBXBXBXBXBXBXBXBXBXrX.XrXnXN.9.OXV.A.G.F.F.B.B.<X2X<X,X2Xh.B W W W S b ` >.J.r.r.i.u.i.u.u.l.OXnXCXCXBXBXBXBXBXBXBXBXBXBXBXBXBX",
"BXBXBXBXBXBXBXBXBXaXQ.T.Y.rX;XJ.bXsXOXB.Z.A.G.D.B.r.r.A.,Xw.N J W J D  .K.L.L.y.u.f.s.u.g f.`.yXCXCXBXBXBXBXBXBXBXCXBXBXBXBXBXCX",
"BXBXBXBXBXBXBXAXBXXXY.I.I.!.v.+XBXZXcXa.j k.g.a o.) ) +.e.X.n & S ` >.L.L.L.L.t.f.u.u.u.u./.'.gXCXCXCXCXBXBXBXBXBXCXBXBXBXBXBXZX",
"BXBXBXBXBXBXBXBXCX Xy I.U.r { O.r.+X+Xg E.Q.r ) |  .| | } ` b F #.>.L.L.L.L.#.u.d.s.d.f.z./.[.lXAXCXBXBXBXBXZXBXBXBXBXBXBXBXBXBX",
"BXBXBXBXBXBXBXBXAXwXt Y.I.r ] [ [ [ { O.q.R.d | | | | | | |  .>.>.K.L.L.K.y.u.u.d.f.f.f.z./.'.cXCXBXZXBXBXBXBXBXBXBXBXBXBXBXBXBX",
"BXBXBXAXBXBXBXBXCXbXQ.y R.E.S.w.O.] [ [ o.Y.I | | | | | | | | #.K.K.L.H.q.l.(.f.f./.f.f.^.l.[.NXZXBXBXBXBXBXCXBXBXBXBXBXCXBXBXBX",
"BXBXBXBXBXBXBXBXZXZXxX|.XXvXCXnXhX:Xw.] o.T.I | | | | | | |  . .K.L.H.D 3 u./.{.[.`.`././.^.eXZXBXBXBXZXBXBXBXBXBXBXBXBXBXBXBXZX",
"BXBXCXBXBXBXBXBXZXZXZXCXCXCXCXCXBXAXXX8 r T.0 ' ' ` ) ) ' |  . .K.#.N H B m 4 g /.{.[.`.`.'.&XBXBXBXBXBXBXBXBXZXBXBXBXBXBXBXBXBX",
"BXBXBXBXZXBXZXBXBXBXBXBXBXCXBXBXBXZXiX7 y y t > ` | : - - N b X.D 1 Z W E E V 6 ^ 6XcXdX4X{.5XBXBXBXBXBXBXBXBXBXBXBXBXBXBXBXBXBX",
"BXBXBXBXBXBXBXBXBXBXBXBXBXBXBXZXZXZXbXl y R.t 6 > ` n & c & & & v v Y W E E 2 6 A ( uXAXCXBXBXBXBXBXBXBXBXBXZXBXBXBXZXBXBXBXBXBX",
"BXBXBXBXBXBXBXBXBXBXZXBXBXBXBXBXZXBXZX%Xy y e 7 @ * - c v v v v c C E H E B 6 2 Y E ( hXCXBXBXBXBXZXBXBXBXBXBXBXBXBXBXBXZXBXBXBX",
"CXBXBXBXBXZXBXBXBXBXBXBXBXBXBXBXZXBXZXNXXXe l u.= * * c c c c v c A Z C Z 2 7 3 E W J c.NXZXBXBXBXBXBXZXBXBXBXBXBXZXCXBXBXBXBXBX",
"BXBXBXBXBXBXBXBXZXBXBXBXBXBXBXBXBXBXBXCXbX!.E.^.i i ; 4 M c v c c c v m 4 7 , $ E W W S -XAXBXZXBXBXBXBXBXZXBXBXBXBXBXBXBXBXCXBX",
"BXBXZXBXBXBXBXBXBXBXBXBXBXZXCXBXBXBXBXBXmX].E.).i i i = N C v c v m X...9.a # % J W W E ~ kXCXBXBXBXBXBXBXBXBXBXBXBXBXBXBXZXBXBX",
"BXBXBXCXBXBXBXBXBXBXBXBXBXBXBXBXBXBXZXBXBX].E.].s.d d a 5 Q C c % b %.%.-.o.$ & A Y L S A _.NXZXBXBXBXCXBXBXBXBXBXBXBXBXZXBXBXCX",
"BXBXBXBXBXBXBXBXBXBXZXBXBXBXBXBXBXBXZXZXBX|.l Q.].].].}.].p.3 , , 5 %.*.%.n & & V ).XXXX).dXZXZXBXBXBXBXZXBXBXBXBXBXBXBXBXBXBXBX",
"BXBXBXBXBXBXBXCXBXBXBXZXBXBXZXBXBXBXBXBXBXyX).!.!.W.s.E.!.E.r 6 , , ; _ b % v & ^ wXiXAXgXnXCXCXBXBXBXBXBXBXBXBXZXBXBXBXBXBXBXBX",
"CXBXBXBXBXBXBXBXBXBXBXBXBXBXBXBXZXBXBXBXBXZXBXBXbXcXxXpXyXiXgX X3 $ % % % v Z $ Q.wXiXAXfXcXCXCXCXBXBXBXBXBXBXCXBXCXBXBXBXZXBXBX",
"BXBXBXBXBXBXZXBXBXBXBXBXBXBXBXBXBXBXBXBXBXBXBXBXZXZXZXZXAXCXAXbX/ m v v m C P $ Q.qXwXAXyX*XCXCXBXBXBXBXBXBXBXBXBXBXBXBXBXBXCXBX",
"BXCXBXBXBXBXBXBXBXBXBXBXZXBXBXBXBXBXBXZXBXBXZXBXBXBXZXBXCXZXZXCX-XS v & v Z Y & ^ wXiXAXyXg.NXCXBXBXBXBXBXBXBXBXBXBXBXBXBXBXBXBX",
"BXBXBXBXCXBXBXBXZXBXBXBXBXBXBXBXBXBXBXBXBXBXBXBXZXZXBXBXZXBXBXCXbXU v v v Y Y & ^ wXwXAX5Xs cXCXBXBXBXZXCXBXBXBXZXBXBXCXBXBXBXZX",
"BXBXBXBXBXBXBXBXBXBXBXBXBXBXBXBXZXBXBXBXZXBXBXBXZXZXZXBXBXBXBXCXnXU & v v Y B L -XiXaXAX'.s bXCXBXBXBXBXBXBXBXBXBXBXBXBXBXBXBXBX",
"BXBXZXBXBXBXZXBXBXBXBXBXBXCXZXBXBXBXCXBXBXBXBXBXCXBXBXBXBXBXBXCXbX_.L 3 U p.Q.XXlXrXzX&X< s BXBXBXCXBXBXZXBXBXBXBXBXBXBXBXBXBXBX",
"BXZXBXBXBXBXBXBXBXBXBXBXBXBXBXBXBXBXBXBXBXBXBXBXBXBXBXBXBXBXZXBXBXNXgX).qXqXwXbXzXNXdX^.O z BXBXBXBXBXBXBXBXBXBXBXBXBXBXBXBXBXBX",
"BXBXBXBXBXBXBXZXBXBXZXBXBXBXBXBXBXBXCXBXBXBXBXBXBXBXBXBXBXBXBXBXBXBXVXwXXXqXxXAXvXnXAXBX.X|.CXBXBXCXBXBXCXBXBXBXBXBXBXBXBXBXZXBX",
"ZXBXBXBXBXBXBXBXBXBXBXBXZXBXBXBXBXBXBXBXBXCXBXBXBXBXBXCXBXBXCXBXBXBXVXmXqXqXgXAXCXgXNXBXBXBXBXBXBXBXBXBXBXBXBXBXBXBXBXAXBXBXBXBX",
"BXBXBXBXBXBXBXBXBXBXZXBXBXBXBXBXBXBXBXBXBXBXBXBXBXBXBXZXBXBXBXBXVXBXBXCXcX%XwXmXAXzX*XCXBXBXBXBXBXBXBXBXBXBXBXBXBXBXBXBXBXBXBXBX",
"BXBXBXBXBXBXBXBXBXBXBXBXBXBXBXBXBXCXBXBXBXBXBXBXBXBXBXBXBXBXBXBXBXBXBXBXVXyXqXiXcXyXh nXBXBXBXBXBXBXBXBXBXZXBXCXBXBXBXBXBXBXBXBX",
"BXBXBXBXBXBXBXBXBXBXBXBXBXBXBXBXBXBXBXBXBXCXCXCXBXBXBXBXBXBXBXBXBXVXBXBXVXVXrX.X%Xk u $XBXBXBXCXBXBXCXBXBXBXBXBXBXBXBXBXBXBXBXBX",
"BXBXBXZXBXZXBXBXCXBXBXBXBXBXZXBXBXBXBXBXBXBXCXCXCXBXBXBXBXBXCXBXBXBXBXBXVXVXVX*X8 + u h BXBXBXBXBXBXBXBXBXBXBXBXAXBXBXBXBXBXBXAX",
"BXBXBXBXBXCXZXBXBXBXBXZXBXBXBXBXBXBXBXBXBXBXBXNXNXVXCXCXCXCXCXCXBXBXVXVXVXCXCXbXs O + p cXCXBXBXBXBXBXBXBXBXBXBXBXBXBXBXBXBXAXBX",
"BXCXBXBXBXBXBXBXBXZXCXBXBXBXBXBXBXVXBXBXZXNXcXgXgXdXgX*X$X&X5XgXNXBXCXCXCXAXAXAXrX< + p zXCXBXBXBXBXAXBXBXBXBXBXBXBXBXBXBXBXBXBX",
"BXBXBXZXBXBXBXBXBXBXBXBXBXCXBXBXVXBXBXNXNXaX{.(.(.(.(.k k k.k.k.(.{.$X*XeXrXaXgXlXg.O p zXCXCXBXBXBXBXBXBXBXBXBXBXBXBXBXBXBXBXBX",
"ZXBXBXBXBXBXBXBXBXBXBXBXBXBXBXZXBXyXeX5X5X$X{.$X$X$X&X&X$X{.{.{.{.{.[.(.(.(.~.l.(.z = s gXCXCXBXBXBXBXBXBXBXBXBXBXBXBXBXBXZXBXBX",
"BXBXBXBXCXZXBXBXBXBXBXBXBXBXBXBXBXnXNXBXNXBXBXBXCXCXCXCXBXNXBXBXBXBXNXBXnXbXcXzXkXdXyXdXnXBXBXBXBXBXBXBXBXBXZXBXBXBXBXBXBXBXBXBX",
"BXBXCXBXBXBXBXBXCXBXBXBXBXBXBXZXBXCXZXBXCXBXBXBXVXVXVXVXBXBXVXBXBXBXBXBXBXCXCXCXAXAXAXCXBXBXBXBXBXBXBXBXBXAXBXBXBXBXBXBXBXBXBXBX",
"BXBXBXBXBXBXBXBXBXBXZXBXBXBXBXBXBXBXBXBXVXBXBXBXVXBXVXVXBXBXBXBXBXBXBXBXBXBXZXBXBXBXBXBXZXBXBXBXBXBXBXBXBXBXBXBXBXBXBXAXBXBXBXBX",
"BXBXBXBXBXBXBXBXZXBXBXBXBXCXBXBXBXBXBXBXBXZXBXBXBXBXVXVXBXBXBXBXBXBXBXBXBXBXBXZXBXBXBXBXBXBXBXBXBXAXBXBXBXBXBXBXBXBXBXBXBXBXBXBX"
};
