/* XPM */
static char *result[] = {
/* columns rows colors chars-per-pixel */
"64 64 256 2 ",
"   c #020101",
".  c #0D0C06",
"X  c #19150A",
"o  c #100F16",
"O  c #1D161B",
"+  c #261B0A",
"@  c #39110E",
"#  c #271C17",
"$  c #2C2308",
"%  c #332809",
"&  c #3A2A0D",
"*  c #3C310F",
"=  c #2C231A",
"-  c #352A19",
";  c #3C321B",
":  c #140D26",
">  c #181424",
",  c #281D29",
"<  c #271938",
"1  c #321F3A",
"2  c #112434",
"3  c #2C2128",
"4  c #332A22",
"5  c #342828",
"6  c #3B3223",
"7  c #3A3326",
"8  c #2D2135",
"9  c #372939",
"0  c #3D313A",
"q  c #4B110D",
"w  c #48120C",
"e  c #5B1711",
"r  c #661912",
"t  c #761D18",
"y  c #542413",
"u  c #473A1C",
"i  c #7A2118",
"p  c #6B3517",
"a  c #453A23",
"s  c #483A25",
"d  c #4B3E2C",
"f  c #523E2E",
"g  c #432E32",
"h  c #47383B",
"j  c #663827",
"k  c #56471B",
"l  c #54481D",
"z  c #6E4E1B",
"x  c #64531C",
"c  c #69571D",
"v  c #4D4323",
"b  c #4B432B",
"n  c #4A4629",
"m  c #524422",
"M  c #564A25",
"N  c #554B2B",
"B  c #5B4C2B",
"V  c #5C5324",
"C  c #5C532B",
"Z  c #4C4736",
"A  c #554835",
"S  c #5A5537",
"D  c #5B543B",
"F  c #694D2B",
"G  c #675725",
"H  c #63562B",
"J  c #64592D",
"K  c #6C5C2C",
"L  c #745E29",
"P  c #645B34",
"I  c #655837",
"U  c #6B5D33",
"Y  c #645C3C",
"T  c #715E35",
"R  c #5B773F",
"E  c #6F6326",
"W  c #6E622D",
"Q  c #73642D",
"!  c #78652A",
"~  c #756A2E",
"^  c #7B6A2D",
"/  c #7F712F",
"(  c #6D6233",
")  c #67633A",
"_  c #6B633C",
"`  c #736433",
"'  c #766A33",
"]  c #7B6C32",
"[  c #786939",
"{  c #7D7034",
"}  c #7B723B",
"|  c #252A4F",
" . c #382646",
".. c #372A4F",
"X. c #422D48",
"o. c #483648",
"O. c #4F374F",
"+. c #493556",
"@. c #543A55",
"#. c #4A3564",
"$. c #543C66",
"%. c #224A74",
"&. c #564648",
"*. c #565846",
"=. c #5A4459",
"-. c #645C41",
";. c #685946",
":. c #6A5251",
">. c #5B684C",
",. c #6A6343",
"<. c #696548",
"1. c #756945",
"2. c #7A7448",
"3. c #776756",
"4. c #697052",
"5. c #787455",
"6. c #5A4568",
"7. c #5D4672",
"8. c #654965",
"9. c #77566A",
"0. c #6B5370",
"q. c #685179",
"w. c #526B71",
"e. c #677B6D",
"r. c #811F19",
"t. c #89241D",
"y. c #92271E",
"u. c #982A21",
"i. c #A12D24",
"p. c #875425",
"a. c #8E5D29",
"s. c #846B2B",
"d. c #86742E",
"f. c #9A7A2D",
"g. c #816E35",
"h. c #847234",
"j. c #8B7C34",
"k. c #82743A",
"l. c #887939",
"z. c #957132",
"x. c #8C7D43",
"c. c #8C734B",
"v. c #867948",
"b. c #867B54",
"n. c #83617B",
"m. c #69954B",
"M. c #708152",
"N. c #708575",
"B. c #8B8036",
"V. c #98863A",
"C. c #A2832F",
"Z. c #A68C36",
"A. c #AA943B",
"S. c #B2973C",
"D. c #BDA53D",
"F. c #C5A83E",
"G. c #8D8248",
"H. c #978747",
"J. c #9B924D",
"K. c #8C8458",
"L. c #978B56",
"P. c #9B925A",
"I. c #A48E4A",
"U. c #A99747",
"Y. c #B59A44",
"T. c #AA9354",
"R. c #A69957",
"E. c #B5A347",
"W. c #BBA444",
"Q. c #BCA649",
"!. c #BDAB4B",
"~. c #B1A553",
"^. c #B7A858",
"/. c #868763",
"(. c #8B8D65",
"). c #948D63",
"_. c #93956B",
"`. c #999568",
"'. c #9B9A6D",
"]. c #8C9270",
"[. c #959A73",
"{. c #9D9D73",
"}. c #A39C68",
"|. c #A39E72",
" X c #9CA278",
".X c #AAA36A",
"XX c #B4AA6A",
"oX c #BAB16C",
"OX c #A4A273",
"+X c #AAA573",
"@X c #ADA975",
"#X c #A5A77C",
"$X c #ADAA7A",
"%X c #B5A477",
"&X c #B2AB73",
"*X c #B2AD7B",
"=X c #B5B17D",
"-X c #BAB479",
";X c #C6AB45",
":X c #D0AF42",
">X c #CAB74C",
",X c #D1BE4C",
"<X c #C4AC56",
"1X c #C9B757",
"2X c #D2BA57",
"3X c #C8B764",
"4X c #D1BA66",
"5X c #C3BA7B",
"6X c #D7C34D",
"7X c #CEC15E",
"8X c #D4C35A",
"9X c #D4C363",
"0X c #D7C568",
"qX c #DBCC6C",
"wX c #DDD26B",
"eX c #CAC173",
"rX c #D7CA77",
"tX c #DDD373",
"yX c #E3D36F",
"uX c #E3D676",
"iX c #3D6987",
"pX c #6E5682",
"aX c #765C85",
"sX c #497595",
"dX c #7D628C",
"fX c #477BAC",
"gX c #856C90",
"hX c #6D8E8B",
"jX c #548FB2",
"kX c #6797A0",
"lX c #71AAAE",
"zX c #4C8ECD",
"xX c #4189E9",
"cX c #4088F0",
"vX c #899A88",
"bX c #8AA598",
"nX c #ACAC83",
"mX c #B5B383",
"MX c #BBB682",
"NX c #BDB983",
"BX c #B2B78F",
"VX c #B9B88A",
"CX c #96AEAA",
"ZX c #A4BAAF",
"AX c #C3BD87",
"SX c #CAB589",
"DX c #ACC3BA",
"FX c #C4C28B",
"GX c #CBC588",
"HX c #D7D08B",
"JX c #CAC794",
"KX c #D3CD98",
"LX c #E7DC84",
"PX c #EEE98F",
"IX c #DED9A3",
"UX c #8DB9CA",
/* pixels */
"<.-.-.,.,.D s * & & & & % $ $ % ( XXFXKXGX=X{.}.OX}.$XOX_.`.}.+X&XOX`.`.+XOX`.}.|.'.%XFXGXGX&XG.W V l W ! ` ] ^ ` ` Y -.-.,.<.<.",
",.-.D D D n * & & & & % $ $ % F L.-XFXAXMX X/. X*X|.$X=XOX]._.$X=X|.|.#X$X'.OX-X$X_.$XFXFXFX-X}.} C l l K W ` ] ` U I -.D Y D A ",
"<.<.,.S A u % % & & % $ + $ ,.&XAX+X_.(.(.#X[.nXBXNXFXVXnX XBXJXJXBXBX#X#X#XVXVXBX{.nX[./._._.MXNX`.) l V G Q ` ] U D ;.S S D D ",
"5.5.<.D D v % % % % $ % * J &XKXJXMX*X[./.nXKXKXJXJXJXJXJXJXJXJXJXKXKXJXFXFXJXJXKXKXJX[.(.'._.mXKXGX}.C l k G ! ! K S <.D ,.3.5.",
"b.5.<.-.D u % % % + & [ %XAXMX*X|.|.*XmXAXVXOX2.Y _ _ ,.<.4.:.>.<.1._ <.,.Y _ Y <.(.=XFXmX|./.].$X=XFXNX1.v l k G W J <.<.<.4.5.",
"5.3.<.D v & % $ + ; 1.-XGXMX(./.[.#XNXAXOX5.>.*.A P K *.>.sXsXw.w.,.` ( ` ) ) D C P ,.(.NX$X'.|.(./.OXGX*X} S m l G J -.<.-.;.<.",
"<.4.;.D a - $ $ u G.5XMXmX|./.M.{.VX=Xb.,.>.N.hXN.4.>.w.sXiXfXiXw.*.-.1.e.N.hXw.<.4.*.-.).mXAXVX(.5.(.NXmX@X.X[ V V C D <.A D D ",
"-.D Z b u % * n `.GX&X(./.#XAXAXAXmX2.S S <.hXlXlXhXw.fXfXxXcXzXfXsXe.N.kXlXlXw.hXvXN.>.-.1.$XJXVX X$X=X`.(.}.AX2.l C D A d S ,.",
"D D Z f u M K.AXAX|.}.`._.mXGXNX}.2.U P P P ,.e.w.N.jXzXxXcXcXxXfXfXjXkXN.N.N.N.bXZXbXN.>.) 4.(.$XNXFX#X$XP..XAXNX2.H W Z A S 2.",
"<.<.;.m C `.5X-X$X`.`.@XVX=X).2._ ) ( U P J U _ >.hXzXzXxXcXcXxXfXfXzXkXN.N.lXZXCXBXCXvXe.1.Y U 1.G.OXJXNX}._.[.-X@XK.K.,.<.*.-.",
"-.,.Y Y }.AX.X%X$X=XMX&X'.2.U U U K W P I Y Y 5.N.lXjXfXfXcXcXxXjXjXkXlXkXhXBXZXZXZXN.dX4.` ( ( U ) _ {.$X=X-X$X=X.X&XGX2.S S A ",
"D -.D ).GXGX*XmX#XVXJX`._ S ( ' ] ( ` Q C C P >.hXlXw.hXjXzXzXjXlXCXN.hXlXN. XBXCXlXhXZXN._ { { ^ Q P Y ) '.FX$X$XmX-XGX1.Z n 7 ",
",.,.-.`.GXmX{.#X=XGXNXK._ ) ` { { W ' Q n n n Y m.>.>.w.iXiXfXjXUXCXM.*.>.e..XoX XhXbXDX].e.2.{ { ~ ( P I G.NXJX#X XOXMXv.S n ; ",
"Y Y A ).-X(.M.`.`.@XK.I ( ' { { { ( ` W n n J ~ ) V = o 2 %.%.iXUXhX2 2 7 N M.R.`. XbXDXvXM.2.{ { { { ` U [ L.mX{././.`.{ N b b ",
"A Z N K.OX(.`.@XXXXXG.) ` ] { { { ( ( ( V l V V l $ .     o 2 | w.=.2 o . X - N R R M.ZX].,.[ { { { { ' ' ' W &X+X'.'.`.] B D S ",
"a b A b. X+X-XXXoX-XK.` ' { { ^ ^ ~ ( ( E J C V $ .                           X u V 2.].5.` ^ ! ' { { ' ' } ~ H.(.$X-X+XK.I A I ",
"v v N b.$X$X&X.XoX-XG.` ` ' ' ~ ~ ] h.T T [ g.` M % .                     X - v H ` _ U ] g.] ! ~ ` ' ' l.J.~ E 2.&X-X+X+X<.N B ",
"{ C ,.).OX+XR.XXHXHX-XG.' ' ~ W ~ h.h.^ K K ` ` [ ( n - .             # ; M Q ( ( ` T L ^ ] { ~ E Q ' ] H.oXU.^ ~ L.'. X+X;.A k.",
"Y.[ b.|.'..XoXtXPXPXHXL.' { ' ~ ~ ] h.h.^ K U K U ` ' C =           X N _ ' W C K W Q ! g.g.] Q ~ ~ { ' H.3X4Xl.E ' K._.|.Y C E.",
"A.( K.MX5XeXrXPXPXPXrXJ.' { { { ] ] ] g.] ] T J ) P P ( v .       . ; K.M.1.R C K ! ] ^ ] ] ~ ' ] { { { U.9X0Xj.E ! }.$X*X,.( Q.",
"Z.` K.HXeXrXqXLXPXPXPXJ.' { { ] h.] ^ ^ ^ ` T K ) } G.L.v .         X K.#X X2.J J ` h.g.^ ! ] { { { ] x.^.0X9Xl.c K l.'.=X_ L Q.",
"I.[ K.HXtX4X1XtXPXLXLXoX2.( ` ] ] ] ] ] ` U P H ' G.~.R.s             2.&X@XG.J J K ` ^ ] ] ] ] { ' ' l.1X9X4Xl.c x G } @XY k Y.",
"Z.] `.HXtXrX!.rXPXtXuXrXG.P ( ] { { ] ` ` _ C C B.U.E.j.-             n J.^.J.~ H C L ] ] h.{ ] { { l.~.2X9X2Xj.c x G ~ .X[ V Y.",
"U.l.R.tXuXrX!.tXPX9X7XrXP.S W ^ ] { ] K T U I C ( B.V.V X             X V } Q V H H K ^ ^ ] { [ ~ ^ H.3X2X<X1XQ.^ x x G l.Q G U.",
"Y.l.I.tXwX6X!.tXPX9X!.eX-XL.1.U ( [ ] Q Q Q T H B ' v.( H C V C C C C B ( ' J M K ` ^ ^ Q ' ` U T [ L.3XQ.S.!.2XB.x x x c x V U.",
"Y.] H.9X8X6X6XtXPX7XE.7XrXGX`.2._ ( ] ` Q ^ ^ K L ` [ ` U ` ` ` ` ' ` ( ) ` ` ` L ^ g.! W Q U Y 1.c.^.<XU.A.S.;Xd.c x x c x x E.",
"A.` l.>X6X6XwXuX8X>XE.oXeXGXAX=X(.1.) P P Q ^ ] { ' ` ~ T Q ` ` ' ` Q K ( ' ] { ] ] ^ ( P ) 2.(.|.<X<XQ.S.S.S.D.d.c c x x l l U.",
"U.Q K Y.6X6XyXuX6X>X>X>X4XrXOXVXGX*X2.S I Q ^ ] { { { { g.^ ! ^ ^ ] ^ ] { { { { ] ^ ^ P Y P.BXFXSX3X2X<XS.D.;X2XB.c c x k l l A.",
"Y.Q l V.>X6XuXuX8X6X6X!.9XrXP.].FXKXmXb._ U Q ! ^ { ] { h.g.^ ! ! ^ ] h.{ ] { ~ ! Q K U 1.mXKXmX}.<X4X<XF.F.F.2XB.c x x k * l A.",
"Y.` - K E.,XuXLX8X6X6X!.rXrX.X X|.{.VXFX+X2.) C H K ( ! ` ` ` ` ` ` ` ` ! K K C B I ,.).*X|._.|.^.3X4X<X;XF.F.;XD./ z x u $ u A.",
"!.] 3 a V.,XtXtX6X6X6X6X1XqXrXmX_._.$XmXFXFX+X3.Y I P ) Y -.[ ,.,._ ,._ Y I I S -.(.mXJXmX|./.).^.3X2X<X;XF.F.;XQ.d.x x % X u A.",
"Q.g.5 5 / ;XwXqX8X6X6X6X>XqXLX$X/.`.[.5.[.JXIXVXnX X]._.[.#XnXnXnXnX#X[.].[.{.#XnXJXIXmX(.`.).P.3X2X;XF.:X:X:XF.W.d.x k + X u A.",
"Q.h.h 8 N ~.qX7X>X6X6X8X2XqXLXGX X(.[.M./.#X#X XVXmX[. X[. XBXVXVXBX X X[.$XVXBXnX[.nX{././.).3X4X4X2X;X:X:X:X;X<Xs.x & . + u A.",
"E.k.=...( 7XqX1X,X6X6X>X>X1XqXLXGXFXGXNX{._. X*X=XOXOX*XOX`.(.@X|._.'.@X$X'.@X=X*X_.].=XNXNXSXrXqX2X;X;X;X;X;XF.;Xd.x % X @ m A.",
"E.[ :.&.W 7XqX,X>X>X6X6X>X,XqXLXeXFXIXGX-X$X+X$X@X+X-X@X'.{..X$X%XOX'.OX*X&X+X&X&X+X*XGXKXHXHXuX0X<X;XW.;X;X;XD.Y.j.x u X - m A.",
"~.[ =.O.) 7X9X!.!.E.!.>X>X>X8XwX^.oXHXGXGXeXeX5X5XFXeX-XoX-X5X5X5X-XoXoX5X5X5X5X5X5X5XGXGXrXuXqX2X;X;XW.D.;XD.S.Y.Z.! u + = l U.",
"Y.[ =.o.' 1X3X!.E.B.V.E.E.W.>X1X8X9X9XqXtXtXtXwXwXwXwXwXwXqXqXqXqXqXqXqXqXqXqXqX0X0X0X0X8X2X2X2X2X:XW.S.S.Z.V.Z.S.Z.! k + @ s U.",
"I.T O.o.} 7X1X!.A.B.j.B.j.j.A.E.Q.E.Q.!.!.;X!.>X!.>X!.!.!.<X!.!.!.Q.;XQ.!.Q.;XW.Q.;X;XQ.;XY.Y.S.Y.S.f.d.d.^ ^ V.S.A.s.k + # s V.",
"` F h &.G.0X7XW.A.{ H V N n Q j.j.j.j.B.B.j.j.j.B.j.B.B.j.j.j.l.l.l.l.j.j.d.d.j.z.j.j.f.z.s.s.z.s.L M m V G E f.S.Y.s.k + @ u ` ",
"L V d I R.9X!.U.l.N 7 4 # : - v l v l v v v v b N Z N Z f A f h f b f f f f d f M u u u u s u j u # O # - a G j.S.Y.^ k + O u [ ",
"h.H o.&.~.9X!.H.` 6 # > : : , < 8 5 9 8 3 3 8 8 8 8 8 8 < < < < < < < < < 1 1 < , 8 3 3 @ 1 3 3 , O o : > = l z.A.Y.j.x - a A v.",
"K A X.1.~.>X!.Z.` 6 > < < <  .#.7.q.q.q.7.6.6...h h ..0  . .1  . . . . .g h h h O.+.6.8.8.@.8.@.O.1 < > , # l ! Z.S.Z.E Y ).).v.",
"B O.X.1.E.E.!.U.] 6 O  ...#.7.q.dXgXaXaXq.7.6. .0 o.&.3.3.3.3.3.3.3.:.3.:.f g  .o.@.6.0.n.n.n.n.9.$.@.1 , , u F V.S.Z.L 1.*X.Xv.",
"V o. .k.1X1X!.A.` 0 , O.q.aXgXgX9.q.$.$...&.&.<.5.K..XrXrX0X0X0X4X0X0X4XXX).b.c.:.o.X.X.@.@.8.n.9.n.9.@. ., 5 F j.A.A.L v.}.P.` ",
"B h Z B.8X9XE.A.I X.1 $.q.aXaX9.:.X. .o.*.M.~.rXuXuXyXwX8X2X2X:X2X2X2X2X0XqXyXyX^.H.Y f 0  .X.:.:.n.9.8.O.1 1 B j.H.V.v.L.L.x.( ",
"u  .A I.7X1XE.B.h |  .=.aXpXq.8.+.+.:.b.R.!.8X8X0X8X9X8X2X<X;XS.S.W.;X>X2X2X4X0X2X1X~.H.1.@.X.@.:.8.8.8.O. .1 B l.K.G.x.[ [ v.} ",
"- 9 I ~.7XE.Z.P  . .+.=.8.$.$.3.b.L..X1X^.J.J.U.<X2X<XY.f.z.a.p.y.p.z.z.f.Q.<XY.I.H.U.^.^.c.c.c.c.8.O.O.@.X. .A K.}.b.P 1.b.L.2.",
"& 9 S ~.!.S.V.S 1 ..#.@.X.X.c.^.0X0XwX^.G.) S } Y.;XZ.p.r r t r.i i r r i z.Y.Y.h.S ( G.T.<X0X2X<Xa.X.1 O.X.X.;.}.b.b.b.R.&XR.[ ",
"u g A U.E.I.V.P 9 ..#... .3.^.2X^.~.U.( a Z 2.R.!.Y.p.r r r.u.i.i.i.t.t r p z.D.U._ 7 6 F I.Y.2X<XT.c.X. . . .;.).`.mXNX&X.XR.v.",
"s f F ~.E.j.d.C  ..... .O.x.<X~.K.;.b # O n P.~.z.F r r t.u.u.y.y.u.y.y.t r p p.x.v.N # = g F c.c.<XY.p.g  .X.;.}.SXJXFXNX&X}.L.",
"m N U ~.^.d.! J h ....:.x.H.H.1.&. .9 3 3 P R.2.p w w t u.u.r.r r t y.i.y.r w e F I.v.7 , 3 3 O.T Z.T.z.O.X.X.<.&XFXFXJXMX%Xv.I ",
"s b P U.^.j.L B g .. .:.H.l.! f 3 3 0 ..9 2.^.2.y w w t u.y.t e r r r.u.y.e @ e j c.T.d 9 h 1 , s T z.x.T h o.b.=XFXFXFXL.1.b u ",
"k B l.U.H./ K N 0 .. .*.] { ' M = 9 @.6.o.1.L.` y w @ t u.y.t r e r r.i.r.e w w j 1.x.A @.=.o.# - F ^ Q T o.;.L.+X-XmXb.C s 4 = ",
"u B J.U./ W A o.o.o...&.H } G.x.A X.@.o.s K s.F y @ w t u.u.t.t.r.y.y.r.e w w p L F s g o.@.c.T 1.k.T B f h -.H.R.`.c.B s 5 3 5 ",
"m G ^.~.d.E B o.+.6.=.9 7 N _ v.v.c.;.h a u x z z y w w t y.u.u.i.i.y.t w @ y z L j u = g &.I.T.x.` N ; 5 A b..XL.[ B s 5 6 ; w ",
"j L oX1Xj.K Z o.$.q.q.+.5 ; n ) v.I.I.c.s - l E p.L y @ e t t.y.y.t.t t q @ z p.p.z u - A c.I.x.[ B u - A b.%X-XK.C s 4 6 a = @ ",
"m ] 1X1XZ.T Z o.6.aXgXdX6.o.9 0 n J { V.J.J.R.I.f.C.f.p.z y q e e e e p p a.f.f.f.T.I.J.H.z.K N g 5 0 A ).=X.XP.U v s a a u @ @ ",
"u { ^.Q.V.[ A h 8.dXgXgXaX7...| 4 - v E H.R.~.R.Z.S.S.Z.f.p.z p p p z f.Z.Z.S.C.U.T.T.T.g.M y = 3 9 A b.&X`.} J b a 3 a 4 - @ @ ",
"u G.>XA.j.[ Z h 8.aXdXgXdXpX6.=.9 = = ; B [ x.H.C.Z.C.Z.S.C.C.f.f.f.C.Z.Z.C.C.C.V.x.k.K s 4 - 3 X.@.;.P..X2.N n m s 4 a 6 ; 5 g ",
"u H.1XS.H.;.o.o.=.6.pXaXpXq.q.7.6.=...8 , 5 5 d l l x G s.s.s.s.s.s.s.s.! z k z s 9 5 , , 9 O.@.=.:.P.`.[ M n N A s 6 3 6 v C >.",
"u J.qXE.A.v.&.o. .#.$.#.6.6.6.6.6.6.....< > : : O O O # 4 6 ; 4 6 6 ; 6 # # O O > : : > 1 O.@.6.6.;.}.2.N d Z R A s s 4 , Z m.m.",
"u H.7X!.~.K.:.&.=.6.8.8.w.8.:.0.0.8.=.=.&.7 7 4 4 4 4 4 a d d d s d d d ; - = 3 5 5 7 d O.=.=.8.:.;.P.2.I ;.D M.1.Y A d S >.m.m.",
"* G.!.U.U.R.R.P.L.).P.}.`.P.`.P.P.P.P.P.M.j./ B.} B.B.k.x.x.x.x.G.x.x.x.l.l.l.k.] { h.H.I.L.L.L.b.[ [ I x.P.G.%XSX|.,.S R m.m.m.",
"% { ~.V.j.G.v.} { { { } ] [ ' [ ' ~ ~ ~ ~ ~ ~ / R / } } ` K L K K K K U ] { { K Q ~ ~ ] ` L Q ` ` H B N [ L.T.SXSX%X2.m.m.m.m.m."
};
